<svg xmlns="http://www.w3.org/2000/svg" xmlns:xlink="http://www.w3.org/1999/xlink" version="1.1" x="0px" y="0px" viewBox="0 0 64 80" enable-background="new 0 0 64 64" xml:space="preserve"><g><path d="M52,0H12C8.7,0,6,2.7,6,6v52c0,3.3,2.7,6,6,6h40c3.3,0,6-2.7,6-6V6C58,2.7,55.3,0,52,0z M56,58c0,2.2-1.8,4-4,4H12   c-2.2,0-4-1.8-4-4V6c0-2.2,1.8-4,4-4h40c2.2,0,4,1.8,4,4V58z"/><path d="M17.8,46.4c-3.2,0-5.8,2.6-5.8,5.8c0,3.2,2.6,5.8,5.8,5.8c3.2,0,5.8-2.6,5.8-5.8C23.6,49,21,46.4,17.8,46.4z M17.8,56   c-2.1,0-3.8-1.7-3.8-3.8s1.7-3.8,3.8-3.8s3.8,1.7,3.8,3.8S19.9,56,17.8,56z"/><path d="M17.8,32.2c-3.2,0-5.8,2.6-5.8,5.8c0,3.2,2.6,5.8,5.8,5.8c3.2,0,5.8-2.6,5.8-5.8C23.6,34.8,21,32.2,17.8,32.2z M17.8,41.8   c-2.1,0-3.8-1.7-3.8-3.8s1.7-3.8,3.8-3.8s3.8,1.7,3.8,3.8S19.9,41.8,17.8,41.8z"/><path d="M32,46.4c-3.2,0-5.8,2.6-5.8,5.8c0,3.2,2.6,5.8,5.8,5.8c3.2,0,5.8-2.6,5.8-5.8C37.8,49,35.2,46.4,32,46.4z M32,56   c-2.1,0-3.8-1.7-3.8-3.8s1.7-3.8,3.8-3.8s3.8,1.7,3.8,3.8S34.1,56,32,56z"/><path d="M32,32.2c-3.2,0-5.8,2.6-5.8,5.8c0,3.2,2.6,5.8,5.8,5.8c3.2,0,5.8-2.6,5.8-5.8C37.8,34.8,35.2,32.2,32,32.2z M32,41.8   c-2.1,0-3.8-1.7-3.8-3.8s1.7-3.8,3.8-3.8s3.8,1.7,3.8,3.8S34.1,41.8,32,41.8z"/><path d="M51,32.2h-9.6c-0.6,0-1,0.4-1,1V57c0,0.6,0.4,1,1,1H51c0.6,0,1-0.4,1-1V33.2C52,32.7,51.6,32.2,51,32.2z M50,56h-7.6V34.2   H50V56z"/><path d="M51,6H13c-0.6,0-1,0.4-1,1v18c0,0.6,0.4,1,1,1h38c0.6,0,1-0.4,1-1V7C52,6.4,51.6,6,51,6z M50,24H14V8h36V24z"/><path d="M40.1,17h2v2c0,0.6,0.4,1,1,1s1-0.4,1-1v-2h2c0.6,0,1-0.4,1-1s-0.4-1-1-1h-2v-2c0-0.6-0.4-1-1-1s-1,0.4-1,1v2h-2   c-0.6,0-1,0.4-1,1S39.6,17,40.1,17z"/></g><text x="0" y="79" fill="#000000" font-size="5px" font-weight="bold" font-family="'Helvetica Neue', Helvetica, Arial-Unicode, Arial, Sans-serif">Created by Creative Stall</text><text x="0" y="84" fill="#000000" font-size="5px" font-weight="bold" font-family="'Helvetica Neue', Helvetica, Arial-Unicode, Arial, Sans-serif">from the Noun Project</text></svg>