<?xml version="1.0" encoding="UTF-8" standalone="no"?>
<svg
   xmlns:dc="http://purl.org/dc/elements/1.1/"
   xmlns:cc="http://creativecommons.org/ns#"
   xmlns:rdf="http://www.w3.org/1999/02/22-rdf-syntax-ns#"
   xmlns:svg="http://www.w3.org/2000/svg"
   xmlns="http://www.w3.org/2000/svg"
   xmlns:sodipodi="http://sodipodi.sourceforge.net/DTD/sodipodi-0.dtd"
   xmlns:inkscape="http://www.inkscape.org/namespaces/inkscape"
   version="1.1"
   x="0px"
   y="0px"
   viewBox="0 0 92 75"
   enable-background="new 0 0 64 64"
   xml:space="preserve"
   id="svg5135"
   sodipodi:docname="calculator_cc.svg"
   width="92"
   height="75"
   inkscape:version="0.92.1 r15371"><metadata
     id="metadata5141"><rdf:RDF><cc:Work
         rdf:about=""><dc:format>image/svg+xml</dc:format><dc:type
           rdf:resource="http://purl.org/dc/dcmitype/StillImage" /><dc:title></dc:title></cc:Work></rdf:RDF></metadata><defs
     id="defs5139" /><sodipodi:namedview
     pagecolor="#ffffff"
     bordercolor="#666666"
     borderopacity="1"
     objecttolerance="10"
     gridtolerance="10"
     guidetolerance="10"
     inkscape:pageopacity="0"
     inkscape:pageshadow="2"
     inkscape:window-width="1278"
     inkscape:window-height="1368"
     id="namedview5137"
     showgrid="false"
     inkscape:zoom="4.17193"
     inkscape:cx="13.638497"
     inkscape:cy="-15.69232"
     inkscape:window-x="1359"
     inkscape:window-y="0"
     inkscape:window-maximized="0"
     inkscape:current-layer="svg5135" /><g
     id="g5129"
     transform="translate(15.841435,10.762712)"><path
       d="M 52,0 H 12 C 8.7,0 6,2.7 6,6 v 52 c 0,3.3 2.7,6 6,6 h 40 c 3.3,0 6,-2.7 6,-6 V 6 C 58,2.7 55.3,0 52,0 Z m 4,58 c 0,2.2 -1.8,4 -4,4 H 12 C 9.8,62 8,60.2 8,58 V 6 C 8,3.8 9.8,2 12,2 h 40 c 2.2,0 4,1.8 4,4 z"
       id="path5113"
       inkscape:connector-curvature="0" /><path
       d="m 17.8,46.4 c -3.2,0 -5.8,2.6 -5.8,5.8 0,3.2 2.6,5.8 5.8,5.8 3.2,0 5.8,-2.6 5.8,-5.8 0,-3.2 -2.6,-5.8 -5.8,-5.8 z m 0,9.6 C 15.7,56 14,54.3 14,52.2 c 0,-2.1 1.7,-3.8 3.8,-3.8 2.1,0 3.8,1.7 3.8,3.8 0,2.1 -1.7,3.8 -3.8,3.8 z"
       id="path5115"
       inkscape:connector-curvature="0" /><path
       d="m 17.8,32.2 c -3.2,0 -5.8,2.6 -5.8,5.8 0,3.2 2.6,5.8 5.8,5.8 3.2,0 5.8,-2.6 5.8,-5.8 0,-3.2 -2.6,-5.8 -5.8,-5.8 z m 0,9.6 C 15.7,41.8 14,40.1 14,38 c 0,-2.1 1.7,-3.8 3.8,-3.8 2.1,0 3.8,1.7 3.8,3.8 0,2.1 -1.7,3.8 -3.8,3.8 z"
       id="path5117"
       inkscape:connector-curvature="0" /><path
       d="m 32,46.4 c -3.2,0 -5.8,2.6 -5.8,5.8 0,3.2 2.6,5.8 5.8,5.8 3.2,0 5.8,-2.6 5.8,-5.8 0,-3.2 -2.6,-5.8 -5.8,-5.8 z m 0,9.6 c -2.1,0 -3.8,-1.7 -3.8,-3.8 0,-2.1 1.7,-3.8 3.8,-3.8 2.1,0 3.8,1.7 3.8,3.8 0,2.1 -1.7,3.8 -3.8,3.8 z"
       id="path5119"
       inkscape:connector-curvature="0" /><path
       d="m 32,32.2 c -3.2,0 -5.8,2.6 -5.8,5.8 0,3.2 2.6,5.8 5.8,5.8 3.2,0 5.8,-2.6 5.8,-5.8 0,-3.2 -2.6,-5.8 -5.8,-5.8 z m 0,9.6 c -2.1,0 -3.8,-1.7 -3.8,-3.8 0,-2.1 1.7,-3.8 3.8,-3.8 2.1,0 3.8,1.7 3.8,3.8 0,2.1 -1.7,3.8 -3.8,3.8 z"
       id="path5121"
       inkscape:connector-curvature="0" /><path
       d="m 51,32.2 h -9.6 c -0.6,0 -1,0.4 -1,1 V 57 c 0,0.6 0.4,1 1,1 H 51 c 0.6,0 1,-0.4 1,-1 V 33.2 c 0,-0.5 -0.4,-1 -1,-1 z M 50,56 H 42.4 V 34.2 H 50 Z"
       id="path5123"
       inkscape:connector-curvature="0" /><path
       d="M 51,6 H 13 c -0.6,0 -1,0.4 -1,1 v 18 c 0,0.6 0.4,1 1,1 h 38 c 0.6,0 1,-0.4 1,-1 V 7 C 52,6.4 51.6,6 51,6 Z M 50,24 H 14 V 8 h 36 z"
       id="path5125"
       inkscape:connector-curvature="0" /><path
       d="m 40.1,17 h 2 v 2 c 0,0.6 0.4,1 1,1 0.6,0 1,-0.4 1,-1 v -2 h 2 c 0.6,0 1,-0.4 1,-1 0,-0.6 -0.4,-1 -1,-1 h -2 v -2 c 0,-0.6 -0.4,-1 -1,-1 -0.6,0 -1,0.4 -1,1 v 2 h -2 c -0.6,0 -1,0.4 -1,1 0,0.6 0.5,1 1,1 z"
       id="path5127"
       inkscape:connector-curvature="0" /></g><text
     x="0"
     y="79"
     font-size="5px"
     font-weight="bold"
     id="text5133"
     style="font-weight:bold;font-size:5px;font-family:'Helvetica Neue', Helvetica, Arial-Unicode, Arial, Sans-serif;fill:#000000" />
<ellipse
     style="opacity:1;fill:none;fill-opacity:1;stroke:#ffffff;stroke-width:0.75590551;stroke-linecap:round;stroke-miterlimit:4;stroke-dasharray:none;stroke-opacity:1"
     id="path4519"
     cx="3.0508463"
     cy="48.220337"
     rx="1.6724613"
     ry="1.6232712" /><path
     style="fill:none;stroke:#ffffff;stroke-width:0.85128373;stroke-linecap:round;stroke-linejoin:miter;stroke-miterlimit:4;stroke-dasharray:none;stroke-opacity:1"
     d="m 31.45068,5.2765469 h 5.573216"
     id="path4539"
     inkscape:connector-curvature="0" /><path
     style="fill:none;stroke:#ffffff;stroke-width:0.81722504;stroke-linecap:round;stroke-linejoin:miter;stroke-miterlimit:4;stroke-dasharray:none;stroke-opacity:1"
     d="M 34.360329,2.5394293 V 7.799553"
     id="path4539-5"
     inkscape:connector-curvature="0" /><path
     style="fill:none;stroke:#ffffff;stroke-width:0.75590551;stroke-linecap:round;stroke-linejoin:miter;stroke-miterlimit:4;stroke-dasharray:none;stroke-opacity:1"
     d="m 12.728971,35.916429 3.935204,3.640063"
     id="path4490"
     inkscape:connector-curvature="0" /><path
     style="fill:none;stroke:#ffffff;stroke-width:0.75590551;stroke-linecap:round;stroke-linejoin:miter;stroke-miterlimit:4;stroke-dasharray:none;stroke-opacity:1"
     d="m 16.762555,35.867238 -3.935204,3.640063"
     id="path4490-9"
     inkscape:connector-curvature="0" /><ellipse
     style="opacity:1;fill:none;fill-opacity:1;stroke:#ffffff;stroke-width:0.75590551;stroke-linecap:round;stroke-miterlimit:4;stroke-dasharray:none;stroke-opacity:1"
     id="path4519-8"
     cx="70.169487"
     cy="3.1355934"
     rx="1.6724613"
     ry="1.6232712" /><ellipse
     style="opacity:1;fill:none;fill-opacity:1;stroke:#000000;stroke-width:1;stroke-linecap:round;stroke-miterlimit:4;stroke-dasharray:none;stroke-opacity:1"
     id="path4519-6"
     cx="10.593221"
     cy="64.491524"
     rx="5.7316022"
     ry="5.767158" /><path
     style="fill:none;stroke:#000000;stroke-width:1;stroke-linecap:round;stroke-linejoin:miter;stroke-miterlimit:4;stroke-dasharray:none;stroke-opacity:1"
     d="m 7.8055682,61.524196 5.4393208,5.328703"
     id="path4490-7"
     inkscape:connector-curvature="0" /><path
     style="fill:none;stroke:#000000;stroke-width:1;stroke-linecap:round;stroke-linejoin:miter;stroke-miterlimit:4;stroke-dasharray:none;stroke-opacity:1"
     d="M 13.380872,61.452185 7.9415512,66.780888"
     id="path4490-9-8"
     inkscape:connector-curvature="0" /><ellipse
     style="opacity:1;fill:none;fill-opacity:1;stroke:#000000;stroke-width:1;stroke-linecap:round;stroke-miterlimit:4;stroke-dasharray:none;stroke-opacity:1"
     id="path4519-6-0"
     cx="84.650002"
     cy="49.669537"
     rx="5.7316022"
     ry="5.767158" /><path
     style="fill:none;stroke:#000000;stroke-width:0.95463395;stroke-linecap:round;stroke-linejoin:miter;stroke-miterlimit:4;stroke-dasharray:none;stroke-opacity:1"
     d="m 81.576928,49.449353 h 6.315646"
     id="path4539-7"
     inkscape:connector-curvature="0" /><path
     style="fill:none;stroke:#000000;stroke-width:0.91644037;stroke-linecap:round;stroke-linejoin:miter;stroke-miterlimit:4;stroke-dasharray:none;stroke-opacity:1"
     d="m 84.874183,46.411921 v 5.837261"
     id="path4539-5-3"
     inkscape:connector-curvature="0" /><path
     style="opacity:1;fill:none;fill-opacity:1;stroke:#000000;stroke-width:1;stroke-linecap:round;stroke-miterlimit:4;stroke-dasharray:none;stroke-opacity:1"
     id="path5820"
     sodipodi:type="arc"
     sodipodi:cx="72.787056"
     sodipodi:cy="55.40316"
     sodipodi:rx="12.033898"
     sodipodi:ry="12.79661"
     sodipodi:start="0.012707389"
     sodipodi:end="1.4813677"
     sodipodi:open="true"
     d="M 84.819983,55.565767 A 12.033898,12.79661 0 0 1 73.861797,68.148634" /></svg>