<?xml version="1.0" encoding="UTF-8" standalone="no"?>
<svg
   xmlns:dc="http://purl.org/dc/elements/1.1/"
   xmlns:cc="http://creativecommons.org/ns#"
   xmlns:rdf="http://www.w3.org/1999/02/22-rdf-syntax-ns#"
   xmlns:svg="http://www.w3.org/2000/svg"
   xmlns="http://www.w3.org/2000/svg"
   xmlns:sodipodi="http://sodipodi.sourceforge.net/DTD/sodipodi-0.dtd"
   xmlns:inkscape="http://www.inkscape.org/namespaces/inkscape"
   version="1.1"
   x="0px"
   y="0px"
   viewBox="0 0 85 85"
   id="svg4493"
   sodipodi:docname="clock_cc.svg"
   width="85"
   height="85"
   inkscape:version="0.92.1 r15371">
  <metadata
     id="metadata4499">
    <rdf:RDF>
      <cc:Work
         rdf:about="">
        <dc:format>image/svg+xml</dc:format>
        <dc:type
           rdf:resource="http://purl.org/dc/dcmitype/StillImage" />
        <dc:title></dc:title>
      </cc:Work>
    </rdf:RDF>
  </metadata>
  <defs
     id="defs4497" />
  <sodipodi:namedview
     pagecolor="#ffffff"
     bordercolor="#666666"
     borderopacity="1"
     objecttolerance="10"
     gridtolerance="10"
     guidetolerance="10"
     inkscape:pageopacity="0"
     inkscape:pageshadow="2"
     inkscape:window-width="2560"
     inkscape:window-height="1377"
     id="namedview4495"
     showgrid="false"
     inkscape:zoom="6.5053824"
     inkscape:cx="60.320262"
     inkscape:cy="39.380797"
     inkscape:window-x="1358"
     inkscape:window-y="-8"
     inkscape:window-maximized="1"
     inkscape:current-layer="svg4493" />
  <g
     transform="translate(-7.4549768,-959.93358)"
     id="g4487">
    <path
       style="color:#000000;text-indent:0;text-transform:none;direction:ltr;baseline-shift:baseline;display:inline;overflow:visible;visibility:visible;fill:#000000;fill-opacity:1;stroke:none;enable-background:accumulate"
       d="m 50.000001,960.36218 c -23.17217,0 -42,18.82779 -42,42.00002 0,23.1722 18.82783,42 42,42 23.172188,0 41.999998,-18.8278 41.999998,-42 0,-23.17223 -18.82782,-42.00002 -41.999998,-42.00002 z m 0,4 c 21.010398,0 37.999998,16.98959 37.999998,38.00002 0,21.0104 -16.98959,38 -37.999998,38 -21.01039,0 -38,-16.9896 -38,-38 0,-21.01043 16.98961,-38.00002 38,-38.00002 z m 0,7 c -1.1046,0 -2,0.8954 -2,2 v 29.00002 c 0,1.1046 0.8954,2 2,2 h 26.999998 c 1.1046,0 2,-0.8954 2,-2 0,-1.1046 -0.8954,-2 -2,-2 H 52.000001 v -27.00002 c 0,-1.1046 -0.8954,-2 -2,-2 z"
       marker="none"
       visibility="visible"
       display="inline"
       overflow="visible"
       id="path4485"
       inkscape:connector-curvature="0" />
  </g>
  <text
     x="0"
     y="75"
     font-size="5px"
     font-weight="bold"
     id="text4489"
     style="font-weight:bold;font-size:5px;font-family:'Helvetica Neue', Helvetica, Arial-Unicode, Arial, Sans-serif;fill:#000000" />
  <text
     x="0"
     y="80"
     font-size="5px"
     font-weight="bold"
     id="text4491"
     style="font-weight:bold;font-size:5px;font-family:'Helvetica Neue', Helvetica, Arial-Unicode, Arial, Sans-serif;fill:#000000" />
</svg>
