<svg xmlns:dc="http://purl.org/dc/elements/1.1/" xmlns:cc="http://creativecommons.org/ns#" xmlns:rdf="http://www.w3.org/1999/02/22-rdf-syntax-ns#" xmlns:svg="http://www.w3.org/2000/svg" xmlns="http://www.w3.org/2000/svg" xmlns:sodipodi="http://sodipodi.sourceforge.net/DTD/sodipodi-0.dtd" xmlns:inkscape="http://www.inkscape.org/namespaces/inkscape" version="1.1" x="0px" y="0px" viewBox="0 0 100 125"><g transform="translate(0,-952.36218)"><path style="text-indent:0;text-transform:none;direction:ltr;block-progression:tb;baseline-shift:baseline;color:#000000;enable-background:accumulate;" d="m 50.000001,960.36218 c -23.17217,0 -42,18.82779 -42,42.00002 0,23.1722 18.82783,42 42,42 23.172188,0 41.999998,-18.8278 41.999998,-42 0,-23.17223 -18.82782,-42.00002 -41.999998,-42.00002 z m 0,4 c 21.010398,0 37.999998,16.98959 37.999998,38.00002 0,21.0104 -16.98959,38 -37.999998,38 -21.01039,0 -38,-16.9896 -38,-38 0,-21.01043 16.98961,-38.00002 38,-38.00002 z m 0,7 c -1.1046,0 -2,0.8954 -2,2 l 0,29.00002 c 0,1.1046 0.8954,2 2,2 l 26.999998,0 c 1.1046,0 2,-0.8954 2,-2 0,-1.1046 -0.8954,-2 -2,-2 l -24.999998,0 0,-27.00002 c 0,-1.1046 -0.8954,-2 -2,-2 z" fill="#000000" fill-opacity="1" stroke="none" marker="none" visibility="visible" display="inline" overflow="visible"/></g><text x="0" y="115" fill="#000000" font-size="5px" font-weight="bold" font-family="'Helvetica Neue', Helvetica, Arial-Unicode, Arial, Sans-serif">Created by arjuazka</text><text x="0" y="120" fill="#000000" font-size="5px" font-weight="bold" font-family="'Helvetica Neue', Helvetica, Arial-Unicode, Arial, Sans-serif">from the Noun Project</text></svg>