<svg xmlns="http://www.w3.org/2000/svg" xmlns:xlink="http://www.w3.org/1999/xlink" version="1.1" x="0px" y="0px" viewBox="0 0 100 125" style="enable-background:new 0 0 100 100;" xml:space="preserve"><g><path d="M60,18c0-5.2-12.9-8-25-8s-25,2.8-25,8v50c0,5.2,12.9,8,25,8c1.7,0,3.4-0.1,5-0.2V82c0,5.2,12.9,8,25,8s25-2.8,25-8V62   c0-5.2-12.9-8-25-8c-1.7,0-3.3,0.1-5,0.2V18z M58,28c0,2.5-8.8,6-23,6s-23-3.5-23-6v-6.7c4.1,3.1,13.8,4.7,23,4.7s18.9-1.6,23-4.7   V28z M35,36c9.2,0,18.9-1.6,23-4.7V38c0,2.5-8.8,6-23,6s-23-3.5-23-6v-6.7C16.1,34.4,25.8,36,35,36z M12,41.3   c4.1,3.1,13.8,4.7,23,4.7s18.9-1.6,23-4.7V48c0,2.5-8.8,6-23,6s-23-3.5-23-6V41.3z M35,12c14.2,0,23,3.5,23,6s-8.8,6-23,6   s-23-3.5-23-6S20.8,12,35,12z M35,74c-14.2,0-23-3.5-23-6v-6.7c4.1,3.1,13.8,4.7,23,4.7c1.7,0,3.4-0.1,5-0.2v8   C38.4,73.9,36.7,74,35,74z M88,72c0,2.5-8.8,6-23,6s-23-3.5-23-6v-6.7c4.1,3.1,13.8,4.7,23,4.7s18.9-1.6,23-4.7V72z M65,88   c-14.2,0-23-3.5-23-6v-6.4c0.1,0,0.1-0.1,0.2-0.1c4.2,3,13.7,4.6,22.8,4.6c9.2,0,18.9-1.6,23-4.7V82C88,84.5,79.2,88,65,88z M88,62   c0,2.5-8.8,6-23,6s-23-3.5-23-6s8.8-6,23-6S88,59.5,88,62z M40,62v1.8c-1.6,0.1-3.3,0.2-5,0.2c-14.2,0-23-3.5-23-6v-6.7   c4.1,3.1,13.8,4.7,23,4.7s18.9-1.6,23-4.7v3C48.4,55.2,40,57.8,40,62z"/></g><text x="0" y="115" fill="#000000" font-size="5px" font-weight="bold" font-family="'Helvetica Neue', Helvetica, Arial-Unicode, Arial, Sans-serif">Created by Agni</text><text x="0" y="120" fill="#000000" font-size="5px" font-weight="bold" font-family="'Helvetica Neue', Helvetica, Arial-Unicode, Arial, Sans-serif">from the Noun Project</text></svg>