<?xml version="1.0" encoding="UTF-8" standalone="no"?>
<svg
   xmlns:dc="http://purl.org/dc/elements/1.1/"
   xmlns:cc="http://creativecommons.org/ns#"
   xmlns:rdf="http://www.w3.org/1999/02/22-rdf-syntax-ns#"
   xmlns:svg="http://www.w3.org/2000/svg"
   xmlns="http://www.w3.org/2000/svg"
   xmlns:sodipodi="http://sodipodi.sourceforge.net/DTD/sodipodi-0.dtd"
   xmlns:inkscape="http://www.inkscape.org/namespaces/inkscape"
   version="1.1"
   x="0px"
   y="0px"
   viewBox="0 0 82 82"
   xml:space="preserve"
   id="svg4564"
   sodipodi:docname="coins_cc.svg"
   width="82"
   height="82"
   inkscape:version="0.92.1 r15371"><metadata
     id="metadata4570"><rdf:RDF><cc:Work
         rdf:about=""><dc:format>image/svg+xml</dc:format><dc:type
           rdf:resource="http://purl.org/dc/dcmitype/StillImage" /><dc:title /></cc:Work></rdf:RDF></metadata><defs
     id="defs4568" /><sodipodi:namedview
     pagecolor="#ffffff"
     bordercolor="#666666"
     borderopacity="1"
     objecttolerance="10"
     gridtolerance="10"
     guidetolerance="10"
     inkscape:pageopacity="0"
     inkscape:pageshadow="2"
     inkscape:window-width="1278"
     inkscape:window-height="1368"
     id="namedview4566"
     showgrid="false"
     inkscape:zoom="5.3400704"
     inkscape:cx="3.6183836"
     inkscape:cy="53.262134"
     inkscape:window-x="1359"
     inkscape:window-y="0"
     inkscape:window-maximized="1"
     inkscape:current-layer="svg4564" /><g
     id="g4558"
     transform="translate(-8.6141187,-8.543526)"><path
       d="M 60,18 C 60,12.8 47.1,10 35,10 22.9,10 10,12.8 10,18 v 50 c 0,5.2 12.9,8 25,8 1.7,0 3.4,-0.1 5,-0.2 V 82 c 0,5.2 12.9,8 25,8 12.1,0 25,-2.8 25,-8 V 62 c 0,-5.2 -12.9,-8 -25,-8 -1.7,0 -3.3,0.1 -5,0.2 z m -2,10 c 0,2.5 -8.8,6 -23,6 -14.2,0 -23,-3.5 -23,-6 v -6.7 c 4.1,3.1 13.8,4.7 23,4.7 9.2,0 18.9,-1.6 23,-4.7 z m -23,8 c 9.2,0 18.9,-1.6 23,-4.7 V 38 c 0,2.5 -8.8,6 -23,6 -14.2,0 -23,-3.5 -23,-6 v -6.7 c 4.1,3.1 13.8,4.7 23,4.7 z m -23,5.3 c 4.1,3.1 13.8,4.7 23,4.7 9.2,0 18.9,-1.6 23,-4.7 V 48 c 0,2.5 -8.8,6 -23,6 C 20.8,54 12,50.5 12,48 Z M 35,12 c 14.2,0 23,3.5 23,6 0,2.5 -8.8,6 -23,6 -14.2,0 -23,-3.5 -23,-6 0,-2.5 8.8,-6 23,-6 z m 0,62 C 20.8,74 12,70.5 12,68 v -6.7 c 4.1,3.1 13.8,4.7 23,4.7 1.7,0 3.4,-0.1 5,-0.2 v 8 C 38.4,73.9 36.7,74 35,74 Z m 53,-2 c 0,2.5 -8.8,6 -23,6 -14.2,0 -23,-3.5 -23,-6 v -6.7 c 4.1,3.1 13.8,4.7 23,4.7 9.2,0 18.9,-1.6 23,-4.7 z M 65,88 C 50.8,88 42,84.5 42,82 v -6.4 c 0.1,0 0.1,-0.1 0.2,-0.1 4.2,3 13.7,4.6 22.8,4.6 9.2,0 18.9,-1.6 23,-4.7 V 82 c 0,2.5 -8.8,6 -23,6 z M 88,62 c 0,2.5 -8.8,6 -23,6 -14.2,0 -23,-3.5 -23,-6 0,-2.5 8.8,-6 23,-6 14.2,0 23,3.5 23,6 z m -48,0 v 1.8 C 38.4,63.9 36.7,64 35,64 20.8,64 12,60.5 12,58 v -6.7 c 4.1,3.1 13.8,4.7 23,4.7 9.2,0 18.9,-1.6 23,-4.7 v 3 C 48.4,55.2 40,57.8 40,62 Z"
       id="path4556"
       inkscape:connector-curvature="0" /></g><text
     x="0"
     y="72"
     font-size="5px"
     font-weight="bold"
     id="text4560"
     style="font-weight:bold;font-size:5px;font-family:'Helvetica Neue', Helvetica, Arial-Unicode, Arial, Sans-serif;fill:#000000" />
<text
     x="0"
     y="77"
     font-size="5px"
     font-weight="bold"
     id="text4562"
     style="font-weight:bold;font-size:5px;font-family:'Helvetica Neue', Helvetica, Arial-Unicode, Arial, Sans-serif;fill:#000000" />
<path
     style="fill:none;stroke:#ffffff;stroke-width:0.75590551;stroke-linecap:round;stroke-linejoin:miter;stroke-miterlimit:4;stroke-dasharray:none;stroke-opacity:1"
     d="m 57.720248,29.081643 3.935204,3.640063"
     id="path4490"
     inkscape:connector-curvature="0" /><path
     style="fill:none;stroke:#ffffff;stroke-width:0.75590551;stroke-linecap:round;stroke-linejoin:miter;stroke-miterlimit:4;stroke-dasharray:none;stroke-opacity:1"
     d="m 61.753832,29.032452 -3.935204,3.640063"
     id="path4490-9"
     inkscape:connector-curvature="0" /><ellipse
     style="opacity:1;fill:none;fill-opacity:1;stroke:#ffffff;stroke-width:0.75590551;stroke-linecap:round;stroke-miterlimit:4;stroke-dasharray:none;stroke-opacity:1"
     id="path4519"
     cx="76.778015"
     cy="5.0347223"
     rx="1.6724613"
     ry="1.6232712" /><path
     style="fill:none;stroke:#000000;stroke-width:0.99565822px;stroke-linecap:round;stroke-linejoin:miter;stroke-opacity:1"
     d="M 70.972847,44.738968 V 13.551302"
     id="path6272"
     inkscape:connector-curvature="0" /><path
     style="fill:none;stroke:#000000;stroke-width:0.83727962px;stroke-linecap:round;stroke-linejoin:miter;stroke-opacity:1"
     d="m 71.055088,13.192142 -4.583994,5.502041"
     id="path6274"
     inkscape:connector-curvature="0" /><path
     style="fill:none;stroke:#000000;stroke-width:0.83727962px;stroke-linecap:round;stroke-linejoin:miter;stroke-opacity:1"
     d="m 71.055088,13.192142 4.583994,5.502041"
     id="path6274-6"
     inkscape:connector-curvature="0" /></svg>