<?xml version="1.0" encoding="UTF-8" standalone="no"?>
<svg
   xmlns:dc="http://purl.org/dc/elements/1.1/"
   xmlns:cc="http://creativecommons.org/ns#"
   xmlns:rdf="http://www.w3.org/1999/02/22-rdf-syntax-ns#"
   xmlns:svg="http://www.w3.org/2000/svg"
   xmlns="http://www.w3.org/2000/svg"
   xmlns:sodipodi="http://sodipodi.sourceforge.net/DTD/sodipodi-0.dtd"
   xmlns:inkscape="http://www.inkscape.org/namespaces/inkscape"
   version="1.1"
   x="0px"
   y="0px"
   viewBox="0 0 85 93"
   id="svg4497"
   sodipodi:docname="envelope_cc.svg"
   width="85"
   height="93"
   inkscape:version="0.92.1 r15371">
  <metadata
     id="metadata4503">
    <rdf:RDF>
      <cc:Work
         rdf:about="">
        <dc:format>image/svg+xml</dc:format>
        <dc:type
           rdf:resource="http://purl.org/dc/dcmitype/StillImage" />
        <dc:title></dc:title>
      </cc:Work>
    </rdf:RDF>
  </metadata>
  <defs
     id="defs4501" />
  <sodipodi:namedview
     pagecolor="#ffffff"
     bordercolor="#666666"
     borderopacity="1"
     objecttolerance="10"
     gridtolerance="10"
     guidetolerance="10"
     inkscape:pageopacity="0"
     inkscape:pageshadow="2"
     inkscape:window-width="1278"
     inkscape:window-height="1368"
     id="namedview4499"
     showgrid="false"
     inkscape:zoom="6.5053824"
     inkscape:cx="63.735124"
     inkscape:cy="45.293141"
     inkscape:window-x="1359"
     inkscape:window-y="0"
     inkscape:window-maximized="0"
     inkscape:current-layer="svg4497" />
  <g
     transform="translate(-7.8396621,-958.99856)"
     id="g4491"
     style="fill:#858585;fill-opacity:1">
    <path
       style="color:#000000;text-indent:0;text-transform:none;direction:ltr;baseline-shift:baseline;display:inline;overflow:visible;visibility:visible;fill:#858585;fill-opacity:1;fill-rule:evenodd;stroke:none;enable-background:accumulate"
       d="m 49.985204,959.17466 c -0.9202,0 -1.8285,0.31713 -2.5625,0.96875 l -15.0312,13.4375 h -13.4376 c -0.031,-10e-4 -0.062,-10e-4 -0.094,0 -0.491601,0.0463 -0.908401,0.50623 -0.906301,1 v 12 l -8.7186997,7.7813 c -0.3672,0.3797 -0.4489,0.5819 -0.4375,1 v 45.96869 c 0,2.3173 1.8973997,4.2188 4.2187997,4.2188 h 73.9374 c 2.2936,0 4.25,-1.8866 4.25,-4.2188 v -46.09369 c -0.016,-0.44241 -0.1936,-0.59311 -0.4687,-0.875 l -8.75,-7.875 v -11.9063 c -1e-4,-0.52359 -0.4764,-0.99995 -1,-1 H 67.547404 l -14.9685,-13.4375 c -0.734,-0.65162 -1.6735,-0.96875 -2.5937,-0.96875 z m 0,1.96875 c 0.432,0 0.8705,0.16441 1.25,0.5 l 13.2813,11.9375 h -29.0938 l 13.3125,-11.9375 c 0.3796,-0.3356 0.818,-0.5 1.25,-0.5 z m -30.0313,14.4375 h 60.031299 v 25.81249 l -28.687499,20.9063 c -0.8863,0.6462 -1.7387,0.6462 -2.625,0 l -28.7188,-20.9375 c 0.01,-8.61119 0,-17.18032 0,-25.78129 z m 62.031299,13.625 6.625,5.9063 -6.625,4.8125 z m -64.0313,0.031 v 10.6563 l -6.5624,-4.7813 z m 71.25,7.9063 v 44.18739 c 0,1.2295 -1.041,2.2188 -2.25,2.2188 h -73.9374 c -1.2609,0 -2.2188,-0.9744 -2.2188,-2.2188 v -44.15619 l 36.687501,26.74999 c 1.5015,1.0948 3.4983,1.0944 5,0 z"
       marker="none"
       visibility="visible"
       display="inline"
       overflow="visible"
       id="path4485"
       inkscape:connector-curvature="0" />
    <path
       style="color:#000000;text-indent:0;text-transform:none;direction:ltr;baseline-shift:baseline;display:inline;overflow:visible;visibility:visible;fill:#858585;fill-opacity:1;fill-rule:evenodd;stroke:none;enable-background:accumulate"
       d="m 30.766064,986.05091 a 1.0001,1.0001 0 1 0 0,1.9997 h 38.409448 a 1.0001,1.0001 0 1 0 0,-1.9997 z"
       marker="none"
       visibility="visible"
       display="inline"
       overflow="visible"
       id="path4487"
       inkscape:connector-curvature="0" />
    <path
       style="color:#000000;text-indent:0;text-transform:none;direction:ltr;baseline-shift:baseline;display:inline;overflow:visible;visibility:visible;fill:#858585;fill-opacity:1;fill-rule:evenodd;stroke:none;enable-background:accumulate"
       d="m 30.766064,995.70641 a 1.0001,1.0001 0 1 0 0,1.9998 h 38.409448 a 1.0001,1.0001 0 1 0 0,-1.9998 z"
       marker="none"
       visibility="visible"
       display="inline"
       overflow="visible"
       id="path4489"
       inkscape:connector-curvature="0" />
  </g>
  <text
     x="0"
     y="83"
     font-size="5px"
     font-weight="bold"
     id="text4493"
     style="font-weight:bold;font-size:5px;font-family:'Helvetica Neue', Helvetica, Arial-Unicode, Arial, Sans-serif;fill:#000000" />
  <text
     x="0"
     y="88"
     font-size="5px"
     font-weight="bold"
     id="text4495"
     style="font-weight:bold;font-size:5px;font-family:'Helvetica Neue', Helvetica, Arial-Unicode, Arial, Sans-serif;fill:#000000" />
  <path
     style="fill:none;fill-opacity:1;stroke:#eaeaea;stroke-width:3.02362204;stroke-linecap:round;stroke-linejoin:miter;stroke-miterlimit:4;stroke-dasharray:none;stroke-opacity:1"
     d="M 2.1520644,90.69422 H 81.778436"
     id="path4505"
     inkscape:connector-curvature="0" />
</svg>
