<svg xmlns:dc="http://purl.org/dc/elements/1.1/" xmlns:cc="http://creativecommons.org/ns#" xmlns:rdf="http://www.w3.org/1999/02/22-rdf-syntax-ns#" xmlns:svg="http://www.w3.org/2000/svg" xmlns="http://www.w3.org/2000/svg" xmlns:sodipodi="http://sodipodi.sourceforge.net/DTD/sodipodi-0.dtd" xmlns:inkscape="http://www.inkscape.org/namespaces/inkscape" version="1.1" x="0px" y="0px" viewBox="0 0 100 125"><g transform="translate(0,-952.36218)"><path style="text-indent:0;text-transform:none;direction:ltr;block-progression:tb;baseline-shift:baseline;color:#000000;enable-background:accumulate;" d="m 49.985204,959.17466 c -0.9202,0 -1.8285,0.31713 -2.5625,0.96875 l -15.0312,13.4375 -13.4376,0 c -0.031,-10e-4 -0.062,-10e-4 -0.094,0 -0.491601,0.0463 -0.908401,0.50623 -0.906301,1 l 0,12 -8.7186997,7.7813 c -0.3672,0.3797 -0.4489,0.5819 -0.4375,1 l 0,45.96869 c 0,2.3173 1.8973997,4.2188 4.2187997,4.2188 l 73.9374,0 c 2.2936,0 4.25,-1.8866 4.25,-4.2188 l 0,-46.09369 c -0.016,-0.44241 -0.1936,-0.59311 -0.4687,-0.875 l -8.75,-7.875 0,-11.9063 c -1e-4,-0.52359 -0.4764,-0.99995 -1,-1 l -13.437499,0 -14.9685,-13.4375 c -0.734,-0.65162 -1.6735,-0.96875 -2.5937,-0.96875 z m 0,1.96875 c 0.432,0 0.8705,0.16441 1.25,0.5 l 13.2813,11.9375 -29.0938,0 13.3125,-11.9375 c 0.3796,-0.3356 0.818,-0.5 1.25,-0.5 z m -30.0313,14.4375 60.031299,0 0,25.81249 -28.687499,20.9063 c -0.8863,0.6462 -1.7387,0.6462 -2.625,0 l -28.7188,-20.9375 c 0.01,-8.61119 0,-17.18032 0,-25.78129 z m 62.031299,13.625 6.625,5.9063 -6.625,4.8125 z m -64.0313,0.031 0,10.6563 -6.5624,-4.7813 z m 71.25,7.9063 0,44.18739 c 0,1.2295 -1.041,2.2188 -2.25,2.2188 l -73.9374,0 c -1.2609,0 -2.2188,-0.9744 -2.2188,-2.2188 l 0,-44.15619 36.687501,26.74999 c 1.5015,1.0948 3.4983,1.0944 5,0 z" fill="#000000" fill-opacity="1" fill-rule="evenodd" stroke="none" marker="none" visibility="visible" display="inline" overflow="visible"/><path style="text-indent:0;text-transform:none;direction:ltr;block-progression:tb;baseline-shift:baseline;color:#000000;enable-background:accumulate;" d="m 30.766064,986.05091 a 1.0001,1.0001 0 1 0 0,1.9997 l 38.409448,0 a 1.0001,1.0001 0 1 0 0,-1.9997 l -38.409448,0 z" fill="#000000" fill-opacity="1" fill-rule="evenodd" stroke="none" marker="none" visibility="visible" display="inline" overflow="visible"/><path style="text-indent:0;text-transform:none;direction:ltr;block-progression:tb;baseline-shift:baseline;color:#000000;enable-background:accumulate;" d="m 30.766064,995.70641 a 1.0001,1.0001 0 1 0 0,1.9998 l 38.409448,0 a 1.0001,1.0001 0 1 0 0,-1.9998 l -38.409448,0 z" fill="#000000" fill-opacity="1" fill-rule="evenodd" stroke="none" marker="none" visibility="visible" display="inline" overflow="visible"/></g><text x="0" y="115" fill="#000000" font-size="5px" font-weight="bold" font-family="'Helvetica Neue', Helvetica, Arial-Unicode, Arial, Sans-serif"></text><text x="0" y="120" fill="#000000" font-size="5px" font-weight="bold" font-family="'Helvetica Neue', Helvetica, Arial-Unicode, Arial, Sans-serif"></text></svg>