<?xml version="1.0" encoding="UTF-8" standalone="no"?>
<svg
   xmlns:dc="http://purl.org/dc/elements/1.1/"
   xmlns:cc="http://creativecommons.org/ns#"
   xmlns:rdf="http://www.w3.org/1999/02/22-rdf-syntax-ns#"
   xmlns:svg="http://www.w3.org/2000/svg"
   xmlns="http://www.w3.org/2000/svg"
   xmlns:sodipodi="http://sodipodi.sourceforge.net/DTD/sodipodi-0.dtd"
   xmlns:inkscape="http://www.inkscape.org/namespaces/inkscape"
   version="1.1"
   x="0px"
   y="0px"
   viewBox="0 0 132 92"
   enable-background="new 0 0 100 100"
   xml:space="preserve"
   id="svg5846"
   sodipodi:docname="greece_cc.svg"
   width="132"
   height="92"
   inkscape:version="0.92.1 r15371"><metadata
     id="metadata5852"><rdf:RDF><cc:Work
         rdf:about=""><dc:format>image/svg+xml</dc:format><dc:type
           rdf:resource="http://purl.org/dc/dcmitype/StillImage" /><dc:title></dc:title></cc:Work></rdf:RDF></metadata><defs
     id="defs5850" /><sodipodi:namedview
     pagecolor="#ffffff"
     bordercolor="#666666"
     borderopacity="1"
     objecttolerance="10"
     gridtolerance="10"
     guidetolerance="10"
     inkscape:pageopacity="0"
     inkscape:pageshadow="2"
     inkscape:window-width="1278"
     inkscape:window-height="1368"
     id="namedview5848"
     showgrid="false"
     inkscape:zoom="5.3400704"
     inkscape:cx="78.409674"
     inkscape:cy="66.972332"
     inkscape:window-x="1359"
     inkscape:window-y="0"
     inkscape:window-maximized="0"
     inkscape:current-layer="svg5846" /><g
     id="g5844"
     transform="translate(15.168339,-3.5996379)"><path
       d="m 86.245,35.45 h -72.49 c -0.993,0 -1.798,0.805 -1.798,1.797 0,0.992 0.805,1.797 1.798,1.797 h 72.489 c 0.993,0 1.798,-0.805 1.798,-1.797 0,-0.992 -0.804,-1.797 -1.797,-1.797 z"
       id="path5826"
       inkscape:connector-curvature="0" /><path
       d="m 11.958,86.133 c 0,0.993 0.805,1.797 1.798,1.797 h 72.489 c 0.993,0 1.798,-0.805 1.798,-1.797 0,-0.992 -0.805,-1.797 -1.798,-1.797 h -72.49 c -0.993,0 -1.797,0.805 -1.797,1.797 z"
       id="path5828"
       inkscape:connector-curvature="0" /><path
       d="M 93.853,91.405 H 6.147 c -0.993,0 -1.798,0.805 -1.798,1.797 0,0.992 0.805,1.798 1.798,1.798 h 87.706 c 0.993,0 1.798,-0.805 1.798,-1.797 0,-0.992 -0.805,-1.798 -1.798,-1.798 z"
       id="path5830"
       inkscape:connector-curvature="0" /><path
       d="m 13.397,26.704 c 0.263,0 0.529,-0.058 0.782,-0.18 L 50.351,9.002 85.808,26.518 c 0.891,0.441 1.968,0.075 2.407,-0.815 0.44,-0.89 0.075,-1.968 -0.815,-2.407 L 50.367,5 12.612,23.289 c -0.894,0.433 -1.267,1.507 -0.834,2.401 0.31,0.641 0.951,1.014 1.619,1.014 z"
       id="path5832"
       inkscape:connector-curvature="0" /><path
       d="m 27.402,76.068 v -26.36 c 0,-0.993 -0.805,-1.797 -1.797,-1.797 -0.992,0 -1.797,0.805 -1.797,1.797 v 26.36 c 0,0.993 0.805,1.797 1.797,1.797 0.992,0 1.797,-0.804 1.797,-1.797 z"
       id="path5834"
       inkscape:connector-curvature="0" /><path
       d="m 39.6,76.068 v -26.36 c 0,-0.993 -0.805,-1.797 -1.798,-1.797 -0.992,0 -1.797,0.805 -1.797,1.797 v 26.36 c 0,0.993 0.805,1.797 1.797,1.797 0.993,0.001 1.798,-0.804 1.798,-1.797 z"
       id="path5836"
       inkscape:connector-curvature="0" /><path
       d="m 51.797,76.068 v -26.36 c 0,-0.993 -0.805,-1.797 -1.798,-1.797 -0.992,0 -1.797,0.805 -1.797,1.797 v 26.36 c 0,0.993 0.805,1.797 1.797,1.797 0.994,0.001 1.798,-0.804 1.798,-1.797 z"
       id="path5838"
       inkscape:connector-curvature="0" /><path
       d="m 76.192,76.068 v -26.36 c 0,-0.993 -0.805,-1.797 -1.797,-1.797 -0.992,0 -1.797,0.805 -1.797,1.797 v 26.36 c 0,0.993 0.805,1.797 1.797,1.797 0.992,0 1.797,-0.804 1.797,-1.797 z"
       id="path5840"
       inkscape:connector-curvature="0" /><path
       d="m 63.995,76.068 v -26.36 c 0,-0.993 -0.805,-1.797 -1.797,-1.797 -0.993,0 -1.798,0.805 -1.798,1.797 v 26.36 c 0,0.993 0.805,1.797 1.798,1.797 0.992,0.001 1.797,-0.804 1.797,-1.797 z"
       id="path5842"
       inkscape:connector-curvature="0" /></g><ellipse
     style="opacity:1;fill:none;fill-opacity:1;stroke:#000000;stroke-width:1.5;stroke-linecap:round;stroke-miterlimit:4;stroke-dasharray:none;stroke-opacity:1"
     id="path6397"
     cx="66.06675"
     cy="18.12587"
     rx="3.0710258"
     ry="3.3103814" /><ellipse
     style="opacity:1;fill:none;fill-opacity:1;stroke:#000000;stroke-width:1.13792908;stroke-linecap:round;stroke-miterlimit:4;stroke-dasharray:none;stroke-opacity:1"
     id="path6397-5"
     cx="106.64653"
     cy="69.24749"
     rx="4.4066515"
     ry="4.4587436" /><ellipse
     style="opacity:1;fill:none;fill-opacity:1;stroke:#000000;stroke-width:0.83321422;stroke-linecap:round;stroke-miterlimit:4;stroke-dasharray:none;stroke-opacity:1"
     id="path6397-5-8"
     cx="118.63139"
     cy="56.51358"
     rx="1.9946725"
     ry="2.0467646" /><path
     style="fill:none;stroke:#ffffff;stroke-width:1.12926114;stroke-linecap:round;stroke-linejoin:miter;stroke-miterlimit:4;stroke-dasharray:none;stroke-opacity:1"
     d="m 107.56385,43.357334 h 7.52854"
     id="path4539"
     inkscape:connector-curvature="0" /><path
     style="fill:none;stroke:#ffffff;stroke-width:1.08408093;stroke-linecap:round;stroke-linejoin:miter;stroke-miterlimit:4;stroke-dasharray:none;stroke-opacity:1"
     d="m 111.49433,39.791767 v 6.852207"
     id="path4539-5"
     inkscape:connector-curvature="0" /><path
     style="fill:none;stroke:#000000;stroke-width:1px;stroke-linecap:round;stroke-linejoin:miter;stroke-opacity:1"
     d="m 123.78115,48.367614 7.30327,-6.928745"
     id="path6447"
     inkscape:connector-curvature="0" /><path
     style="fill:none;stroke:#000000;stroke-width:0.97130764px;stroke-linecap:round;stroke-linejoin:miter;stroke-opacity:1"
     d="m 114.2157,35.461541 0.21728,-8.831586"
     id="path6449"
     inkscape:connector-curvature="0" /><ellipse
     style="opacity:1;fill:none;fill-opacity:1;stroke:#ffffff;stroke-width:0.68917906;stroke-linecap:round;stroke-miterlimit:4;stroke-dasharray:none;stroke-opacity:1"
     id="path6397-5-8-3"
     cx="105.24206"
     cy="12.319405"
     rx="1.6921632"
     ry="1.6506236" /><path
     style="fill:none;stroke:#ffffff;stroke-width:1;stroke-linecap:round;stroke-linejoin:miter;stroke-miterlimit:4;stroke-dasharray:none;stroke-opacity:1"
     d="m 35.457836,2.241901 5.902054,5.81429"
     id="path4490"
     inkscape:connector-curvature="0" /><path
     style="fill:none;stroke:#ffffff;stroke-width:1;stroke-linecap:round;stroke-linejoin:miter;stroke-miterlimit:4;stroke-dasharray:none;stroke-opacity:1"
     d="m 41.507441,2.163328 -5.902054,5.81429"
     id="path4490-9"
     inkscape:connector-curvature="0" /><ellipse
     style="opacity:1;fill:none;fill-opacity:1;stroke:#000000;stroke-width:1.29999995;stroke-linecap:round;stroke-miterlimit:4;stroke-dasharray:none;stroke-opacity:1"
     id="path6397-5-6"
     cx="24.34425"
     cy="62.786903"
     rx="5.9109869"
     ry="5.7758155" /><ellipse
     style="opacity:1;fill:none;fill-opacity:1;stroke:#000000;stroke-width:0.83321422;stroke-linecap:round;stroke-miterlimit:4;stroke-dasharray:none;stroke-opacity:1"
     id="path6397-5-8-5"
     cx="25.467829"
     cy="39.753498"
     rx="1.9946725"
     ry="2.0467646" /><path
     style="fill:none;stroke:#000000;stroke-width:0.97130764px;stroke-linecap:round;stroke-linejoin:miter;stroke-opacity:1"
     d="m 1.014847,61.929208 8.831586,0.21728"
     id="path6449-2"
     inkscape:connector-curvature="0" /><path
     style="fill:none;stroke:#000000;stroke-width:1px;stroke-linecap:round;stroke-linejoin:miter;stroke-opacity:1"
     d="M 10.954909,51.831989 3.6516393,44.903244"
     id="path6447-1"
     inkscape:connector-curvature="0" /><path
     style="fill:none;stroke:#000000;stroke-width:1px;stroke-linecap:round;stroke-linejoin:miter;stroke-opacity:1"
     d="M 10.767646,70.932863 3.4643766,77.861608"
     id="path6447-1-0"
     inkscape:connector-curvature="0" /><ellipse
     style="opacity:1;fill:none;fill-opacity:1;stroke:#000000;stroke-width:0.91410071;stroke-linecap:round;stroke-miterlimit:4;stroke-dasharray:none;stroke-opacity:1"
     id="path6397-5-7"
     cx="13.5766"
     cy="26.832321"
     rx="3.4886167"
     ry="3.6343405" /></svg>