<svg xmlns="http://www.w3.org/2000/svg" xmlns:xlink="http://www.w3.org/1999/xlink" version="1.1" x="0px" y="0px" viewBox="0 0 100 125" enable-background="new 0 0 100 100" xml:space="preserve"><g><path d="M86.245,35.45H13.755c-0.993,0-1.798,0.805-1.798,1.797s0.805,1.797,1.798,1.797h72.489c0.993,0,1.798-0.805,1.798-1.797   S87.238,35.45,86.245,35.45z"/><path d="M11.958,86.133c0,0.993,0.805,1.797,1.798,1.797h72.489c0.993,0,1.798-0.805,1.798-1.797s-0.805-1.797-1.798-1.797H13.755   C12.762,84.336,11.958,85.141,11.958,86.133z"/><path d="M93.853,91.405H6.147c-0.993,0-1.798,0.805-1.798,1.797S5.154,95,6.147,95h87.706c0.993,0,1.798-0.805,1.798-1.797   S94.846,91.405,93.853,91.405z"/><path d="M13.397,26.704c0.263,0,0.529-0.058,0.782-0.18L50.351,9.002l35.457,17.516c0.891,0.441,1.968,0.075,2.407-0.815   c0.44-0.89,0.075-1.968-0.815-2.407L50.367,5L12.612,23.289c-0.894,0.433-1.267,1.507-0.834,2.401   C12.088,26.331,12.729,26.704,13.397,26.704z"/><path d="M27.402,76.068v-26.36c0-0.993-0.805-1.797-1.797-1.797s-1.797,0.805-1.797,1.797v26.36c0,0.993,0.805,1.797,1.797,1.797   S27.402,77.061,27.402,76.068z"/><path d="M39.6,76.068v-26.36c0-0.993-0.805-1.797-1.798-1.797c-0.992,0-1.797,0.805-1.797,1.797v26.36   c0,0.993,0.805,1.797,1.797,1.797C38.795,77.866,39.6,77.061,39.6,76.068z"/><path d="M51.797,76.068v-26.36c0-0.993-0.805-1.797-1.798-1.797c-0.992,0-1.797,0.805-1.797,1.797v26.36   c0,0.993,0.805,1.797,1.797,1.797C50.993,77.866,51.797,77.061,51.797,76.068z"/><path d="M76.192,76.068v-26.36c0-0.993-0.805-1.797-1.797-1.797s-1.797,0.805-1.797,1.797v26.36c0,0.993,0.805,1.797,1.797,1.797   S76.192,77.061,76.192,76.068z"/><path d="M63.995,76.068v-26.36c0-0.993-0.805-1.797-1.797-1.797c-0.993,0-1.798,0.805-1.798,1.797v26.36   c0,0.993,0.805,1.797,1.798,1.797C63.19,77.866,63.995,77.061,63.995,76.068z"/></g><text x="0" y="115" fill="#000000" font-size="5px" font-weight="bold" font-family="'Helvetica Neue', Helvetica, Arial-Unicode, Arial, Sans-serif">Created by Larisa Skosyrska</text><text x="0" y="120" fill="#000000" font-size="5px" font-weight="bold" font-family="'Helvetica Neue', Helvetica, Arial-Unicode, Arial, Sans-serif">from the Noun Project</text></svg>