<svg xmlns="http://www.w3.org/2000/svg" xmlns:xlink="http://www.w3.org/1999/xlink" xmlns:sketch="http://www.bohemiancoding.com/sketch/ns" viewBox="0 0 60 75" version="1.1" x="0px" y="0px"><title>buildings-72</title><desc>Created with Sketch.</desc><g stroke="none" stroke-width="1" fill="none" fill-rule="evenodd" sketch:type="MSPage"><g sketch:type="MSLayerGroup" fill="#000000"><path d="M31,60 L0,60 L0,36.332 L31,23.504 L31,60 L31,60 Z M2,58 L29,58 L29,26.496 L2,37.668 L2,58 L2,58 Z" sketch:type="MSShapeGroup"/><path d="M59,28 C58.811,28 58.623,27.947 58.458,27.84 L27.458,7.84 C27.172,7.656 27,7.34 27,7 L27,1 C27,0.634 27.2,0.297 27.521,0.122 C27.843,-0.053 28.235,-0.039 28.542,0.16 L59.542,20.16 C59.828,20.344 60,20.66 60,21 L60,27 C60,27.366 59.8,27.703 59.478,27.878 C59.329,27.96 59.165,28 59,28 L59,28 Z M29,6.455 L58,25.165 L58,21.545 L29,2.835 L29,6.455 L29,6.455 Z" sketch:type="MSShapeGroup"/><path d="M37,42 L49,42 L49,60 L37,60 L37,42 Z M39,58 L47,58 L47,44 L39,44 L39,58 Z" sketch:type="MSShapeGroup"/><path d="M45.937,35 L40.063,35 C38.925,35 38,34.074 38,32.937 L38,26.063 C38,24.926 38.925,24 40.063,24 L45.937,24 C47.075,24 48,24.926 48,26.063 L48,32.937 C48,34.074 47.075,35 45.937,35 L45.937,35 Z M40.063,26 L40,32.937 L45.937,33 C45.972,33 46,32.972 46,32.937 L46,26.063 L40.063,26 L40.063,26 Z" sketch:type="MSShapeGroup"/><path d="M26,60 L5,60 L5,40.081 C5,38.934 5.934,38 7.081,38 L23.919,38 C25.066,38 26,38.934 26,40.081 L26,60 L26,60 Z M7,58 L24,58 L24,40.081 C24,40.036 23.964,40 23.919,40 L7.081,40 C7.036,40 7,40.036 7,40.081 L7,58 L7,58 Z" sketch:type="MSShapeGroup"/><path d="M6,42 L25,42 L25,44 L6,44 L6,42 Z" sketch:type="MSShapeGroup"/><path d="M6,46 L25,46 L25,48 L6,48 L6,46 Z" sketch:type="MSShapeGroup"/><path d="M6,50 L25,50 L25,52 L6,52 L6,50 Z" sketch:type="MSShapeGroup"/><path d="M6,54 L25,54 L25,56 L6,56 L6,54 Z" sketch:type="MSShapeGroup"/><path d="M57,60 L29,60 L29,8 L31,8 L31,58 L55,58 L55,25 L57,25 L57,60" sketch:type="MSShapeGroup"/></g></g><text x="0" y="75" fill="#000000" font-size="5px" font-weight="bold" font-family="'Helvetica Neue', Helvetica, Arial-Unicode, Arial, Sans-serif">Created by retinaicon</text><text x="0" y="80" fill="#000000" font-size="5px" font-weight="bold" font-family="'Helvetica Neue', Helvetica, Arial-Unicode, Arial, Sans-serif">from the Noun Project</text></svg>