<?xml version="1.0" encoding="UTF-8" standalone="no"?>
<svg
   xmlns:sketch="http://www.bohemiancoding.com/sketch/ns"
   xmlns:dc="http://purl.org/dc/elements/1.1/"
   xmlns:cc="http://creativecommons.org/ns#"
   xmlns:rdf="http://www.w3.org/1999/02/22-rdf-syntax-ns#"
   xmlns:svg="http://www.w3.org/2000/svg"
   xmlns="http://www.w3.org/2000/svg"
   xmlns:sodipodi="http://sodipodi.sourceforge.net/DTD/sodipodi-0.dtd"
   xmlns:inkscape="http://www.inkscape.org/namespaces/inkscape"
   viewBox="0 0 87 70"
   version="1.1"
   x="0px"
   y="0px"
   id="svg6602"
   sodipodi:docname="house_cc.svg"
   width="87"
   height="70"
   inkscape:version="0.92.1 r15371">
  <metadata
     id="metadata6608">
    <rdf:RDF>
      <cc:Work
         rdf:about="">
        <dc:format>image/svg+xml</dc:format>
        <dc:type
           rdf:resource="http://purl.org/dc/dcmitype/StillImage" />
        <dc:title>buildings-72</dc:title>
      </cc:Work>
    </rdf:RDF>
  </metadata>
  <defs
     id="defs6606" />
  <sodipodi:namedview
     pagecolor="#ffffff"
     bordercolor="#666666"
     borderopacity="1"
     objecttolerance="10"
     gridtolerance="10"
     guidetolerance="10"
     inkscape:pageopacity="0"
     inkscape:pageshadow="2"
     inkscape:window-width="1278"
     inkscape:window-height="1368"
     id="namedview6604"
     showgrid="false"
     inkscape:zoom="6.2933333"
     inkscape:cx="61.255135"
     inkscape:cy="34.150255"
     inkscape:window-x="1359"
     inkscape:window-y="0"
     inkscape:window-maximized="0"
     inkscape:current-layer="svg6602" />
  <title
     id="title6574">buildings-72</title>
  <desc
     id="desc6576">Created with Sketch.</desc>
  <g
     sketch:type="MSPage"
     id="g6600"
     style="fill:none;fill-rule:evenodd;stroke:none;stroke-width:1"
     transform="translate(9.211963,6.538802)">
    <g
       sketch:type="MSLayerGroup"
       id="g6598"
       style="fill:#000000">
      <path
         d="M 31,60 H 0 V 36.332 L 31,23.504 Z M 2,58 H 29 V 26.496 L 2,37.668 Z"
         sketch:type="MSShapeGroup"
         id="path6578"
         inkscape:connector-curvature="0" />
      <path
         d="m 59,28 c -0.189,0 -0.377,-0.053 -0.542,-0.16 l -31,-20 C 27.172,7.656 27,7.34 27,7 V 1 c 0,-0.366 0.2,-0.703 0.521,-0.878 0.322,-0.175 0.714,-0.161 1.021,0.038 l 31,20 C 59.828,20.344 60,20.66 60,21 v 6 c 0,0.366 -0.2,0.703 -0.522,0.878 C 59.329,27.96 59.165,28 59,28 Z M 29,6.455 58,25.165 v -3.62 L 29,2.835 Z"
         sketch:type="MSShapeGroup"
         id="path6580"
         inkscape:connector-curvature="0" />
      <path
         d="M 37,42 H 49 V 60 H 37 Z m 2,16 h 8 V 44 h -8 z"
         sketch:type="MSShapeGroup"
         id="path6582"
         inkscape:connector-curvature="0" />
      <path
         d="M 45.937,35 H 40.063 C 38.925,35 38,34.074 38,32.937 V 26.063 C 38,24.926 38.925,24 40.063,24 h 5.874 C 47.075,24 48,24.926 48,26.063 v 6.874 C 48,34.074 47.075,35 45.937,35 Z M 40.063,26 40,32.937 45.937,33 C 45.972,33 46,32.972 46,32.937 v -6.874 z"
         sketch:type="MSShapeGroup"
         id="path6584"
         inkscape:connector-curvature="0" />
      <path
         d="M 26,60 H 5 V 40.081 C 5,38.934 5.934,38 7.081,38 H 23.919 C 25.066,38 26,38.934 26,40.081 Z M 7,58 H 24 V 40.081 C 24,40.036 23.964,40 23.919,40 H 7.081 C 7.036,40 7,40.036 7,40.081 Z"
         sketch:type="MSShapeGroup"
         id="path6586"
         inkscape:connector-curvature="0" />
      <path
         d="m 6,42 h 19 v 2 H 6 Z"
         sketch:type="MSShapeGroup"
         id="path6588"
         inkscape:connector-curvature="0" />
      <path
         d="m 6,46 h 19 v 2 H 6 Z"
         sketch:type="MSShapeGroup"
         id="path6590"
         inkscape:connector-curvature="0" />
      <path
         d="m 6,50 h 19 v 2 H 6 Z"
         sketch:type="MSShapeGroup"
         id="path6592"
         inkscape:connector-curvature="0" />
      <path
         d="m 6,54 h 19 v 2 H 6 Z"
         sketch:type="MSShapeGroup"
         id="path6594"
         inkscape:connector-curvature="0" />
      <path
         d="M 57,60 H 29 V 8 h 2 V 58 H 55 V 25 h 2 v 35"
         sketch:type="MSShapeGroup"
         id="path6596"
         inkscape:connector-curvature="0" />
    </g>
  </g>
  <ellipse
     style="opacity:1;fill:none;fill-opacity:1;stroke:#ffffff;stroke-width:0.75590551;stroke-linecap:round;stroke-miterlimit:4;stroke-dasharray:none;stroke-opacity:1"
     id="path4519"
     cx="16.628994"
     cy="4.607605"
     rx="1.6724613"
     ry="1.6232712" />
  <path
     style="fill:none;stroke:#ffffff;stroke-width:0.75590551;stroke-linecap:round;stroke-linejoin:miter;stroke-miterlimit:4;stroke-dasharray:none;stroke-opacity:1"
     d="m 65.173333,5.508761 3.935204,3.640063"
     id="path4490"
     inkscape:connector-curvature="0" />
  <path
     style="fill:none;stroke:#ffffff;stroke-width:0.75590551;stroke-linecap:round;stroke-linejoin:miter;stroke-miterlimit:4;stroke-dasharray:none;stroke-opacity:1"
     d="M 69.206917,5.45957 65.271714,9.099633"
     id="path4490-9"
     inkscape:connector-curvature="0" />
  <path
     style="fill:none;stroke:#ffffff;stroke-width:0.75590551;stroke-linecap:round;stroke-linejoin:miter;stroke-miterlimit:4;stroke-dasharray:none;stroke-opacity:1"
     d="m 1.3539503,22.587188 3.9352035,3.640063"
     id="path4490-8"
     inkscape:connector-curvature="0" />
  <path
     style="fill:none;stroke:#ffffff;stroke-width:0.75590551;stroke-linecap:round;stroke-linejoin:miter;stroke-miterlimit:4;stroke-dasharray:none;stroke-opacity:1"
     d="M 5.3875338,22.537997 1.4523304,26.17806"
     id="path4490-9-2"
     inkscape:connector-curvature="0" />
  <path
     style="fill:none;stroke:#ffffff;stroke-width:0.62064809;stroke-linecap:round;stroke-linejoin:miter;stroke-miterlimit:4;stroke-dasharray:none;stroke-opacity:1"
     d="m 29.404252,2.437569 h 4.112015"
     id="path4539"
     inkscape:connector-curvature="0" />
  <path
     style="fill:none;stroke:#ffffff;stroke-width:0.59581679;stroke-linecap:round;stroke-linejoin:miter;stroke-miterlimit:4;stroke-dasharray:none;stroke-opacity:1"
     d="M 31.551041,0.46566 V 4.255225"
     id="path4539-5"
     inkscape:connector-curvature="0" />
  <path
     style="fill:none;stroke:#000000;stroke-width:1.20000005;stroke-linecap:round;stroke-linejoin:miter;stroke-miterlimit:4;stroke-dasharray:none;stroke-opacity:1"
     d="M 0.67414841,67.640481 H 14.494191"
     id="path7212"
     inkscape:connector-curvature="0" />
  <path
     style="fill:none;stroke:#000000;stroke-width:1.20000005;stroke-linecap:round;stroke-linejoin:miter;stroke-miterlimit:4;stroke-dasharray:none;stroke-opacity:1"
     d="m 18.19057,67.752839 h 4.629555"
     id="path7212-2"
     inkscape:connector-curvature="0" />
  <path
     style="fill:none;stroke:#000000;stroke-width:1.07456481;stroke-linecap:round;stroke-linejoin:miter;stroke-miterlimit:4;stroke-dasharray:none;stroke-opacity:1"
     d="M 66.211963,65.864654 H 77.293807"
     id="path7212-27"
     inkscape:connector-curvature="0" />
  <path
     style="fill:none;stroke:#000000;stroke-width:1.20000005;stroke-linecap:round;stroke-linejoin:miter;stroke-miterlimit:4;stroke-dasharray:none;stroke-opacity:1"
     d="m 80.670347,65.802826 h 4.629555"
     id="path7212-2-7"
     inkscape:connector-curvature="0" />
  <path
     style="fill:none;stroke:#ffffff;stroke-width:0.62064809;stroke-linecap:round;stroke-linejoin:miter;stroke-miterlimit:4;stroke-dasharray:none;stroke-opacity:1"
     d="m 72.626196,21.454245 h 4.112015"
     id="path4539-4"
     inkscape:connector-curvature="0" />
  <path
     style="fill:none;stroke:#ffffff;stroke-width:0.59581679;stroke-linecap:round;stroke-linejoin:miter;stroke-miterlimit:4;stroke-dasharray:none;stroke-opacity:1"
     d="m 74.772985,19.482336 v 3.789565"
     id="path4539-5-7"
     inkscape:connector-curvature="0" />
</svg>
