<?xml version="1.0" encoding="UTF-8" standalone="no"?>
<!-- Generator: Adobe Illustrator 16.0.0, SVG Export Plug-In . SVG Version: 6.00 Build 0)  -->

<svg
   xmlns:dc="http://purl.org/dc/elements/1.1/"
   xmlns:cc="http://creativecommons.org/ns#"
   xmlns:rdf="http://www.w3.org/1999/02/22-rdf-syntax-ns#"
   xmlns:svg="http://www.w3.org/2000/svg"
   xmlns="http://www.w3.org/2000/svg"
   xmlns:sodipodi="http://sodipodi.sourceforge.net/DTD/sodipodi-0.dtd"
   xmlns:inkscape="http://www.inkscape.org/namespaces/inkscape"
   version="1.1"
   id="svg42"
   inkscape:version="0.92.1 r15371"
   sodipodi:docname="lighthouse_PA1.svg"
   x="0px"
   y="0px"
   width="55.419998"
   height="26.462999"
   viewBox="0 2 114.42 5.2678637"
   enable-background="new 8.941 2.705 55.42 53.063"
   xml:space="preserve"><metadata
     id="metadata29"><rdf:RDF><cc:Work
         rdf:about=""><dc:format>image/svg+xml</dc:format><dc:type
           rdf:resource="http://purl.org/dc/dcmitype/StillImage" /><dc:title></dc:title></cc:Work></rdf:RDF></metadata><defs
     id="defs27" /><sodipodi:namedview
     inkscape:cy="12.712038"
     inkscape:cx="31.799326"
     inkscape:zoom="16.000001"
     showgrid="false"
     guidetolerance="10"
     gridtolerance="10"
     objecttolerance="10"
     borderopacity="1"
     pagecolor="#ffffff"
     bordercolor="#666666"
     id="namedview44"
     inkscape:current-layer="svg42"
     inkscape:window-maximized="1"
     inkscape:window-y="-8"
     inkscape:window-x="1358"
     inkscape:window-height="1377"
     inkscape:window-width="2560"
     inkscape:pageshadow="2"
     inkscape:pageopacity="0" /><path
     id="path10"
     d="m 64.192076,10.757917 c 0.036,0 0.072,-0.003 0.109,-0.01 0.32,-0.06 0.531,-0.368 0.472,-0.688 -0.039,-0.2100002 -0.06,-0.4260007 -0.06,-0.6430007 0,-1.9159998 1.56,-3.4759998 3.475995,-3.4759998 0.854,0 1.676,0.313 2.312,0.88 0.011,0.01 0.026,0.013 0.038,0.022 0.033,0.025 0.068,0.044 0.106,0.062 0.034,0.017 0.067,0.031 0.104,0.04 0.016,0.004 0.029,0.015 0.046,0.018 0.034,0.005 0.066,0.008 0.099,0.008 0.007,0 0.013,-0.003 0.019,-0.003 0.026,0 0.049,-0.009 0.075,-0.014 0.046,-0.007 0.091,-0.016 0.134,-0.033 0.026,-0.011 0.048,-0.027 0.073,-0.042 0.039,-0.024 0.075,-0.048 0.108,-0.08 0.01,-0.01 0.023,-0.014 0.032,-0.024 0.012,-0.014 0.016,-0.031 0.026,-0.045 0.025,-0.034 0.046,-0.069 0.064,-0.109 0.014,-0.031 0.026,-0.062 0.034,-0.095 0.004,-0.016 0.014,-0.029 0.017,-0.045 0.284,-1.6729995 1.725,-2.8879996 3.426,-2.8879996 1.269,0 2.438,0.692 3.049,1.8060001 0.157,0.2839995 0.513,0.3879995 0.801,0.2329995 0.285,-0.1579995 0.39,-0.5159995 0.233,-0.8009995 -0.819,-1.4910001 -2.383,-2.417 -4.083,-2.417 -1.969,0 -3.676,1.2179999 -4.349,2.995 -0.711,-0.419 -1.524,-0.6460001 -2.362,-0.6460001 -2.566995,0 -4.654995,2.0879996 -4.654995,4.6549994 0,0.289001 0.027,0.5780005 0.079,0.8590007 0.05,0.283 0.297,0.481 0.577,0.481 z"
     inkscape:connector-curvature="0"
     style="fill:#293255" /><path
     id="path12"
     d="m 75.291071,9.2899163 c -2.033,0.407001 -3.465,2.1730007 -3.404,4.2430007 0.009,0.318 0.271,0.508 0.588,0.508 0.006,0 0.012,0 0.018,0 0.326,0 0.582,-0.219 0.573,-0.545 -0.044,-1.492 0.989,-2.726 2.457,-3.019 1.093,-0.217 2.222,0.173 2.942,1.029 0.208,0.249 0.58,0.277 0.83,0.067 0.25,-0.209 0.282,-0.589 0.071,-0.838 -0.997,-1.1860007 -2.559,-1.7480008 -4.075,-1.4450007 z"
     inkscape:connector-curvature="0"
     style="fill:#293255" /><path
     id="path14"
     d="m 105.68707,6.7019165 c 0.026,0.004 0.055,0.006 0.081,0.006 0.29,0 0.543,-0.213 0.583,-0.509 0.048,-0.339 0.021,-0.6779995 -0.078,-1.0069995 -0.183,-0.6040001 -0.589,-1.1020001 -1.146,-1.4010001 -0.558,-0.3 -1.197,-0.365 -1.803,-0.183 -0.076,0.023 -0.149,0.05 -0.222,0.079 -0.301,0.123 -0.447,0.466 -0.324,0.768 0.123,0.303 0.468,0.4460001 0.768,0.325 0.039,-0.016 0.08,-0.03 0.119,-0.042 0.627,-0.191 1.291,0.1670001 1.479,0.7939996 0.051,0.166 0.064,0.336 0.04,0.507 -0.045,0.322 0.18,0.619 0.503,0.663 z"
     inkscape:connector-curvature="0"
     style="fill:#293255" /><path
     id="path16"
     d="M 100.93607,8.7869162 C 99.825071,8.1889166 98.545071,8.0609166 97.337071,8.4249166 c -0.156,0.047 -0.308,0.1009996 -0.454,0.1619996 -0.301,0.125 -0.443,0.47 -0.318,0.7710001 0.125,0.301001 0.469,0.4430005 0.771,0.318001 0.11,-0.046 0.226,-0.087 0.343,-0.122001 0.906,-0.273 1.865,-0.178 2.698999,0.2720005 0.835,0.4480002 1.443,1.1940002 1.717,2.1010002 0.149,0.496 0.189,1.004 0.117,1.51 -0.045,0.322 0.18,0.621 0.502,0.666 0.028,0.005 0.057,0.006 0.083,0.006 0.29,0 0.542,-0.213 0.583,-0.506 0.096,-0.677 0.043,-1.355 -0.155,-2.015 -0.364,-1.209 -1.176,-2.2040007 -2.289,-2.8010008 z"
     inkscape:connector-curvature="0"
     style="fill:#293255" /><path
     id="path18"
     d="m 113.79007,9.2919163 c -0.67,-2.2239998 -2.808,-3.6589998 -5.064,-3.5229998 -0.01,-0.4229995 -0.07,-0.8439995 -0.193,-1.2579996 -0.365,-1.208 -1.177,-2.2029999 -2.289,-2.7999999 -1.112,-0.598 -2.391,-0.727 -3.599,-0.362 -0.034,0.01 -0.065,0.024 -0.099,0.036 -1.389,-1.18000007 -3.278999,-1.59700006 -5.038999,-1.06800007 -0.926,0.27900002 -1.76,0.80000007 -2.412,1.50900007 -0.22,0.239 -0.205,0.613 0.035,0.833 0.113,0.104 0.257,0.1559999 0.4,0.1559999 0.158,0 0.316,-0.063 0.434,-0.1899999 0.508,-0.553 1.16,-0.96 1.883,-1.177 1.462,-0.44 3.046999,-0.052 4.144999,1.011 0.112,0.12 0.269,0.188 0.434,0.185 0.078,0 0.156,-0.015 0.229,-0.046 0.107,-0.044 0.218,-0.084 0.331,-0.118 0.906,-0.273 1.865,-0.177 2.699,0.272 0.834,0.4479999 1.443,1.1939999 1.717,2.101 0.148,0.496 0.188,1.0039995 0.117,1.5109995 -0.005,0.034 0.005,0.066 0.006,0.1 0.002,0.036 -0.006,0.071 0.002,0.108 0.001,0.004 0.004,0.007 0.006,0.012 0.011,0.047 0.035,0.088 0.057,0.13 0.014,0.025 0.021,0.054 0.037,0.077 0.028,0.039 0.066,0.066 0.102,0.097 0.021,0.019 0.039,0.042 0.063,0.056 0.033,0.021 0.072,0.03 0.111,0.044 0.034,0.013 0.066,0.031 0.104,0.037 0.006,0.001 0.01,0.004 0.015,0.005 0.028,0.004 0.056,0.006 0.083,0.006 0.025,0 0.047,-0.01 0.072,-0.013 0.018,-0.002 0.035,0.003 0.053,0 1.92,-0.42 3.865,0.7290001 4.432,2.6119998 0.162,0.5370007 0.203,1.0880007 0.123,1.6380007 -0.047,0.323 0.176,0.622 0.498,0.669 0.029,0.004 0.058,0.006 0.086,0.006 0.287,0 0.54,-0.211 0.582,-0.504 0.104,-0.727 0.05,-1.4490002 -0.161,-2.1520007 z"
     inkscape:connector-curvature="0"
     style="fill:#293255" /><path
     id="path20"
     inkscape:connector-curvature="0"
     d="m 79.176011,15.218917 c 0,-0.326 -1.25478,-0.59 -2.80349,-0.59 H 3.478175 c -1.55247,0 -2.80349004,0.264 -2.80349004,0.59 0,0.326 1.25478004,0.589 2.80349004,0.589 h 72.894346 c 1.54871,0 2.80349,-0.262 2.80349,-0.589 z"
     style="fill:#293255;stroke-width:1.94116569" /><path
     id="path22"
     d="M 111.84307,14.629917 H 96.513071 c -0.326,0 -0.59,0.264 -0.59,0.59 0,0.326 0.264,0.589 0.59,0.589 h 15.329999 c 0.325,0 0.589,-0.263 0.589,-0.589 0,-0.326 -0.264,-0.59 -0.589,-0.59 z"
     inkscape:connector-curvature="0"
     style="fill:#293255" /><path
     id="path24"
     d="m 102.40907,16.987917 h -4.716999 c -0.326,0 -0.59,0.264 -0.59,0.59 0,0.326 0.264,0.59 0.59,0.59 h 4.716999 c 0.325,0 0.589,-0.264 0.589,-0.59 0,-0.326 -0.264,-0.59 -0.589,-0.59 z"
     inkscape:connector-curvature="0"
     style="fill:#293255" /><path
     id="path26"
     d="m 107.71507,16.987917 h -2.358 c -0.326,0 -0.59,0.264 -0.59,0.59 0,0.326 0.264,0.59 0.59,0.59 h 2.358 c 0.326,0 0.59,-0.264 0.59,-0.59 0,-0.326 -0.264,-0.59 -0.59,-0.59 z"
     inkscape:connector-curvature="0"
     style="fill:#293255" /><path
     id="path28"
     d="m 71.160071,16.987917 c -0.326,0 -0.59,0.264 -0.59,0.59 0,0.326 0.264,0.59 0.59,0.59 h 6.485 c 0.326,0 0.59,-0.264 0.59,-0.59 0,-0.326 -0.264,-0.59 -0.59,-0.59 z"
     inkscape:connector-curvature="0"
     style="fill:#293255" /><path
     id="path30"
     d="m 71.749071,20.524917 h -1.769 c -0.326,0 -0.59,0.264 -0.59,0.59 0,0.326 0.264,0.59 0.59,0.59 h 1.769 c 0.326,0 0.59,-0.264 0.59,-0.59 0,-0.326 -0.264,-0.59 -0.59,-0.59 z"
     inkscape:connector-curvature="0"
     style="fill:#293255" /><path
     id="path32"
     d="m 102.40907,20.524917 h -1.77 c -0.326,0 -0.59,0.264 -0.59,0.59 0,0.326 0.264,0.59 0.59,0.59 h 1.77 c 0.325,0 0.589,-0.264 0.589,-0.59 0,-0.326 -0.264,-0.59 -0.589,-0.59 z"
     inkscape:connector-curvature="0"
     style="fill:#293255" /><path
     id="path34"
     d="m 73.665071,7.0339165 c 0.229,0 0.447,-0.135 0.542,-0.358 0.001,-0.004 0.177,-0.378 0.49,-0.482 0.199,-0.064 0.446,-0.014 0.737,0.153 0.282,0.163 0.643,0.065 0.805,-0.216 0.163,-0.283 0.065,-0.6429995 -0.216,-0.8049995 -0.743,-0.428 -1.334,-0.371 -1.699,-0.249 -0.813,0.272 -1.164,1.0509995 -1.201,1.1389995 -0.128,0.3 0.012,0.646 0.311,0.773 0.076,0.03 0.154,0.045 0.231,0.045 z"
     inkscape:connector-curvature="0"
     style="fill:#293255" /><path
     id="path36"
     inkscape:connector-curvature="0"
     d="m 87.669071,4.3629169 c 0,-0.326 0.264,-0.59 0.59,-0.59 h 1.768 c 0.326,0 0.59,0.264 0.59,0.59 0,0.326 -0.264,0.5890001 -0.59,0.5890001 h -1.768 c -0.327,0 -0.59,-0.2630001 -0.59,-0.5890001 z m 2.77,2.1869996 c 0.112,-0.112 0.177,-0.26 0.177,-0.419 0,-0.16 -0.064,-0.307 -0.171,-0.418 -0.218,-0.2179995 -0.612,-0.2179995 -0.837,0 -0.107,0.111 -0.171,0.259 -0.171,0.418 0,0.159 0.063,0.307 0.171,0.419 0.111,0.106 0.266,0.171 0.418,0.171 0.155,0 0.307,-0.065 0.413,-0.171 z m -3.95,0.171 h 1.77 c 0.325,0 0.589,-0.264 0.589,-0.59 0,-0.326 -0.264,-0.589 -0.589,-0.589 h -1.77 c -0.326,0 -0.589,0.263 -0.589,0.589 0,0.326 0.263,0.59 0.589,0.59 z m 2.358,1.1800001 h -1.178 c -0.326,0 -0.59,0.263 -0.59,0.589 0,0.3259996 0.264,0.5899996 0.59,0.5899996 h 1.179 c 0.326,0 0.59,-0.264 0.59,-0.5899996 0,-0.326 -0.264,-0.589 -0.591,-0.589 z m -4.127,5.8960004 c 0,-0.326 -0.263,-0.59 -0.589,-0.59 h -1.179 c -0.326,0 -0.59,0.264 -0.59,0.59 0,0.326 0.264,0.59 0.59,0.59 h 1.179 c 0.326,-0.001 0.589,-0.264 0.589,-0.59 z m 7.076,4.716 h -1.18 c -0.326,0 -0.59,0.264 -0.59,0.59 0,0.326 0.264,0.59 0.59,0.59 h 1.18 c 0.326,0 0.59,-0.264 0.59,-0.59 0,-0.326 -0.264,-0.59 -0.59,-0.59 z m -6.486,-3.537 h -1.179 c -0.326,0 -0.589,0.264 -0.589,0.589 0,0.326 0.263,0.59 0.589,0.59 h 1.179 c 0.326,0 0.59,-0.264 0.59,-0.59 0,-0.325 -0.264,-0.589 -0.59,-0.589 z m 1.179,-1.769 h -0.589 c -0.326,0 -0.59,0.264 -0.59,0.59 0,0.326 0.264,0.59 0.59,0.59 h 0.589 c 0.326,0 0.59,-0.264 0.59,-0.59 0,-0.326 -0.264,-0.59 -0.59,-0.59 z m 15.329999,17.686997 c 0,0.326 -0.264,0.59 -0.59,0.59 H 72.928071 c -0.326,0 -0.589,-0.264 -0.589,-0.59 0,-0.324997 0.264,-0.588997 0.589,-0.588997 h 2.948 v -2.948 h 1.311 l 1.047,-3.545 v -2.352 h 0.819 l 2.598,-20.75500005 -1.649,-3.04899985 V -5.661083 h 2.358 v -2.9480001 h -0.589 v -1.7689999 h -1.656 l 6.373,-6.837994 v -3.774 c 0,-0.326 0.264,-0.589 0.59,-0.589 0.326,0 0.59,0.263 0.59,0.589 v 3.850995 l 6.65,6.761999 h -1.344 v 1.7689999 h -0.59 v 2.9480001 h 1.769 v 3.3170001 l -1.524,3.1419999 2.699,20.662 h 0.594 v 2.352 l 1.273,3.545 h 1.085 v 2.948 h 2.947999 c 0.328,-0.001 0.591,0.263 0.591,0.587997 z M 79.414071,23.229917 h 15.329 v -0.59 h -15.329 z m 7.075,-22.99400007 V -2.1220829 h -2.183 l 0.556,2.35799983 z m 4.717,-4.71699993 h -7.665 v 1.179 h 7.665 z m -8.34,4.71699993 h 0.791 l -0.503,-2.33099983 z m 4.803,0 h 1.68 l 0.55,-2.35799983 h -2.23 z m 2.885,0 h 0.965 l -0.318,-2.35799983 h -0.096 z m 2.553,-2.57899983 h -0.72 l 0.137,1.1039999 z m -0.797,-2.1720001 v 0.993 h 0.956 v -0.993 z m -9.468,-7.041 h 8.647 l -4.44,-4.477999 z m 0.11,1.179 v 0.5899999 h 8.844 v -0.5899999 z m 0.589,4.717 h 7.665 v -2.9480001 h -7.665 z m -2.424,2.138 h 0.957 v -0.993 h -0.957 z m 0.751,2.22 0.128,-1.0409999 h -0.696 z m -1.626,22.763 h 13.9 l -2.479,-20.046 h -8.943 z m -1.818,5.896 h 17.536 l -0.862,-2.947 h -15.812 z m 18.678,1.18 h -20.046 v 1.769 h 20.047 v -1.769 z"
     style="fill:#293255" /><path
     id="path30-6"
     inkscape:connector-curvature="0"
     d="m 65.751076,18.188917 h -1.769 c -0.326,0 -0.589,0.264 -0.589,0.59 0,0.326 0.264,0.59 0.589,0.59 h 1.769 c 0.326,0 0.589,-0.264 0.589,-0.59 0,-0.326 -0.263,-0.59 -0.589,-0.59 z"
     style="fill:#293255" /><path
     id="path10-5"
     d="m 41.187446,2.532717 c 0.036,0 0.072,-0.003 0.109,-0.01 0.32,-0.06 0.531,-0.368 0.472,-0.688 -0.039,-0.21 -0.06,-0.426 -0.06,-0.643 0,-1.91600004 1.56,-3.4759999 3.476,-3.4759999 0.854,0 1.676,0.313 2.312,0.8799999 0.011,0.01 0.026,0.013 0.038,0.022 0.033,0.025 0.068,0.044 0.106,0.062 0.034,0.017 0.067,0.031 0.10401,0.04 0.016,0.004 0.029,0.015 0.046,0.018 0.034,0.005 0.066,0.008 0.099,0.008 0.007,0 0.013,-0.003 0.019,-0.003 0.026,0 0.049,-0.009 0.075,-0.014 0.046,-0.007 0.091,-0.016 0.134,-0.033 0.026,-0.011 0.048,-0.027 0.073,-0.042 0.039,-0.024 0.075,-0.048 0.108,-0.08 0.01,-0.01 0.023,-0.014 0.032,-0.024 0.012,-0.014 0.016,-0.031 0.026,-0.045 0.025,-0.034 0.046,-0.069 0.064,-0.109 0.014,-0.031 0.026,-0.062 0.034,-0.095 0.004,-0.016 0.014,-0.029 0.017,-0.045 0.284,-1.673 1.725,-2.888 3.426,-2.888 1.269,0 2.438,0.692 3.049,1.806 0.157,0.284 0.513,0.3880001 0.801,0.233 0.285,-0.158 0.39,-0.516 0.233,-0.801 -0.81901,-1.491 -2.38301,-2.417 -4.08301,-2.417 -1.969,0 -3.676,1.218 -4.349,2.995 -0.711,-0.419 -1.524,-0.646 -2.362,-0.646 -2.567,0 -4.655,2.0880001 -4.655,4.655 0,0.289 0.027,0.578 0.079,0.859 0.05,0.283 0.297,0.481 0.577,0.481 z"
     inkscape:connector-curvature="0"
     style="fill:#293255;stroke-width:1" /><path
     id="path28-8"
     d="m 34.775156,1.894867 c -0.32242,0 -0.58352,0.264 -0.58352,0.59 0,0.3259999 0.2611,0.5899999 0.58352,0.5899999 h 6.41379 c 0.32242,0 0.58352,-0.264 0.58352,-0.5899999 0,-0.326 -0.2611,-0.59 -0.58352,-0.59 z"
     inkscape:connector-curvature="0"
     style="fill:#293255;stroke-width:0.99449456" /><path
     id="path28-8-6"
     d="m 55.569706,-3.565153 c -0.32242,0 -0.58352,0.264 -0.58352,0.59 0,0.326 0.2611,0.5900001 0.58352,0.5900001 h 6.41379 c 0.32242,0 0.58352,-0.2640001 0.58352,-0.5900001 0,-0.326 -0.2611,-0.59 -0.58352,-0.59 z"
     inkscape:connector-curvature="0"
     style="fill:#293255;stroke-width:0.99449456" /><path
     id="path22-2"
     d="m 57.636216,16.852427 h -29.47766 c -0.62685,0 -1.13449,0.264 -1.13449,0.59 0,0.326 0.50764,0.589 1.13449,0.589 h 29.47766 c 0.62493,0 1.13257,-0.263 1.13257,-0.589 0,-0.326 -0.50764,-0.59 -1.13257,-0.59 z"
     inkscape:connector-curvature="0"
     style="fill:#293255;stroke-width:1.38667715" /><path
     id="path10-3"
     d="m 5.796125,-8.5004231 c 0.036,0 0.072,-0.003 0.109,-0.01 0.32,-0.06 0.531,-0.368 0.472,-0.688 -0.039,-0.21 -0.06,-0.426 -0.06,-0.643 0,-1.9159999 1.56,-3.4759999 3.476,-3.4759999 0.854001,0 1.676001,0.313 2.312001,0.88 0.011,0.01 0.026,0.013 0.038,0.022 0.033,0.025 0.068,0.044 0.106,0.062 0.034,0.017 0.067,0.031 0.104,0.04 0.016,0.004 0.029,0.015 0.046,0.018 0.034,0.005 0.066,0.008 0.099,0.008 0.007,0 0.013,-0.003 0.019,-0.003 0.026,0 0.049,-0.009 0.075,-0.014 0.046,-0.007 0.091,-0.016 0.134,-0.033 0.026,-0.011 0.048,-0.027 0.073,-0.042 0.039,-0.024 0.075,-0.048 0.108,-0.08 0.01,-0.01 0.023,-0.014 0.032,-0.024 0.012,-0.014 0.016,-0.031 0.026,-0.045 0.025,-0.034 0.046,-0.069 0.064,-0.109 0.014,-0.031 0.026,-0.062 0.034,-0.095 0.004,-0.016 0.014,-0.029 0.017,-0.045 0.28399,-1.672999 1.725,-2.887999 3.42599,-2.887999 1.26901,0 2.43801,0.692 3.04901,1.806 0.15699,0.284 0.513,0.388 0.801,0.233 0.28499,-0.158 0.39,-0.516 0.23299,-0.801 -0.819,-1.491 -2.383,-2.417 -4.083,-2.417 -1.969,0 -3.676,1.218 -4.349,2.995 -0.711,-0.419 -1.524,-0.646 -2.362001,-0.646 -2.567,0 -4.655,2.087999 -4.655,4.6549989 0,0.289 0.027,0.578 0.079,0.859 0.05,0.283 0.297,0.481 0.577,0.481 z"
     inkscape:connector-curvature="0"
     style="fill:#293255;stroke-width:1" /><path
     id="path10-3-7"
     d="m 34.527606,-8.5004231 c -0.036,0 -0.072,-0.003 -0.109,-0.01 -0.32,-0.06 -0.531,-0.368 -0.472,-0.688 0.039,-0.21 0.06,-0.426 0.06,-0.643 0,-1.9159999 -1.56,-3.4759999 -3.476,-3.4759999 -0.854,0 -1.676,0.313 -2.312,0.88 -0.011,0.01 -0.026,0.013 -0.038,0.022 -0.033,0.025 -0.068,0.044 -0.106,0.062 -0.034,0.017 -0.067,0.031 -0.104,0.04 -0.016,0.004 -0.029,0.015 -0.046,0.018 -0.034,0.005 -0.066,0.008 -0.099,0.008 -0.007,0 -0.013,-0.003 -0.019,-0.003 -0.026,0 -0.049,-0.009 -0.075,-0.014 -0.046,-0.007 -0.091,-0.016 -0.134,-0.033 -0.026,-0.011 -0.048,-0.027 -0.073,-0.042 -0.039,-0.024 -0.075,-0.048 -0.108,-0.08 -0.01,-0.01 -0.023,-0.014 -0.032,-0.024 -0.012,-0.014 -0.016,-0.031 -0.026,-0.045 -0.025,-0.034 -0.046,-0.069 -0.064,-0.109 -0.014,-0.031 -0.026,-0.062 -0.034,-0.095 -0.004,-0.016 -0.014,-0.029 -0.017,-0.045 -0.28399,-1.672999 -1.725,-2.887999 -3.42599,-2.887999 -1.26901,0 -2.43801,0.692 -3.04901,1.806 -0.15699,0.284 -0.513,0.388 -0.801,0.233 -0.28499,-0.158 -0.39,-0.516 -0.23299,-0.801 0.819,-1.491 2.383,-2.417 4.083,-2.417 1.96901,0 3.676,1.218 4.34901,2.995 0.711,-0.419 1.524,-0.646 2.362,-0.646 2.567,0 4.65499,2.087999 4.65499,4.6549989 0,0.289 -0.027,0.578 -0.079,0.859 -0.05,0.283 -0.297,0.481 -0.577,0.481 z"
     inkscape:connector-curvature="0"
     style="fill:#293255;stroke-width:1" /><path
     id="path22-3"
     d="M 21.176206,-9.4460431 H 5.846205 c -0.326,0 -0.59,0.264 -0.59,0.59 0,0.326 0.264,0.589 0.59,0.589 h 15.330001 c 0.325,0 0.589,-0.263 0.589,-0.589 0,-0.326 -0.264,-0.59 -0.589,-0.59 z"
     inkscape:connector-curvature="0"
     style="fill:#293255;stroke-width:1" /><path
     style="fill:none;stroke:#ffffff;stroke-width:0.92176116;stroke-linecap:round;stroke-linejoin:miter;stroke-miterlimit:4;stroke-dasharray:none;stroke-opacity:1"
     d="m 46.113776,-21.809304 v 3.666282"
     id="path980"
     inkscape:connector-curvature="0" /><path
     style="fill:none;stroke:#ffffff;stroke-width:0.92176116;stroke-linecap:round;stroke-linejoin:miter;stroke-miterlimit:4;stroke-dasharray:none;stroke-opacity:1"
     d="m 47.895986,-19.823402 h -3.66628"
     id="path980-2"
     inkscape:connector-curvature="0" /><path
     style="fill:none;stroke:#ffffff;stroke-width:0.92176116;stroke-linecap:round;stroke-linejoin:miter;stroke-miterlimit:4;stroke-dasharray:none;stroke-opacity:1"
     d="m 100.30865,-10.697823 v 3.6662799"
     id="path980-5"
     inkscape:connector-curvature="0" /><path
     style="fill:none;stroke:#ffffff;stroke-width:0.92176116;stroke-linecap:round;stroke-linejoin:miter;stroke-miterlimit:4;stroke-dasharray:none;stroke-opacity:1"
     d="M 102.09086,-8.7119231 H 98.424581"
     id="path980-2-2"
     inkscape:connector-curvature="0" /><path
     style="fill:none;stroke:#ffffff;stroke-width:0.92176116;stroke-linecap:round;stroke-linejoin:miter;stroke-miterlimit:4;stroke-dasharray:none;stroke-opacity:1"
     d="m 23.183176,-5.656943 v 3.6662801"
     id="path980-86"
     inkscape:connector-curvature="0" /><path
     style="fill:none;stroke:#ffffff;stroke-width:0.92176116;stroke-linecap:round;stroke-linejoin:miter;stroke-miterlimit:4;stroke-dasharray:none;stroke-opacity:1"
     d="m 24.965386,-3.671043 h -3.66628"
     id="path980-2-8"
     inkscape:connector-curvature="0" /><ellipse
     style="opacity:1;fill:none;fill-opacity:1;stroke:#ffffff;stroke-width:0.46088055;stroke-linecap:round;stroke-miterlimit:4;stroke-dasharray:none;stroke-opacity:1"
     id="path1031"
     cx="60.11694"
     cy="-21.198257"
     rx="1.0184118"
     ry="0.98496431" /><ellipse
     style="opacity:1;fill:none;fill-opacity:1;stroke:#ffffff;stroke-width:0.46088049;stroke-linecap:round;stroke-miterlimit:4;stroke-dasharray:none;stroke-opacity:1"
     id="path1031-2"
     cx="69.791855"
     cy="-4.2417183"
     rx="1.0184118"
     ry="0.98496431" /><ellipse
     style="opacity:1;fill:none;fill-opacity:1;stroke:#ffffff;stroke-width:0.46088049;stroke-linecap:round;stroke-miterlimit:4;stroke-dasharray:none;stroke-opacity:1"
     id="path1031-5"
     cx="31.092203"
     cy="-17.684738"
     rx="1.0184118"
     ry="0.98496431" /><ellipse
     style="opacity:1;fill:none;fill-opacity:1;stroke:#ffffff;stroke-width:0.46088049;stroke-linecap:round;stroke-miterlimit:4;stroke-dasharray:none;stroke-opacity:1"
     id="path1031-7"
     cx="43.451519"
     cy="-8.6715412"
     rx="1.0184118"
     ry="0.98496431" /><path
     style="fill:none;stroke:#ffffff;stroke-width:0.70067441;stroke-linecap:round;stroke-linejoin:miter;stroke-miterlimit:4;stroke-dasharray:none;stroke-opacity:1"
     d="m 57.255486,-8.7639031 3.50785,-2.9983299"
     id="path1060"
     inkscape:connector-curvature="0" /><path
     style="fill:none;stroke:#ffffff;stroke-width:0.70067441;stroke-linecap:round;stroke-linejoin:miter;stroke-miterlimit:4;stroke-dasharray:none;stroke-opacity:1"
     d="m 60.826996,-8.8275431 -3.50785,-2.9983299"
     id="path1060-6"
     inkscape:connector-curvature="0" /><path
     style="fill:none;stroke:#ffffff;stroke-width:0.70067441;stroke-linecap:round;stroke-linejoin:miter;stroke-miterlimit:4;stroke-dasharray:none;stroke-opacity:1"
     d="M 45.254666,4.6924069 48.762516,1.694077"
     id="path1060-4"
     inkscape:connector-curvature="0" /><path
     style="fill:none;stroke:#ffffff;stroke-width:0.70067441;stroke-linecap:round;stroke-linejoin:miter;stroke-miterlimit:4;stroke-dasharray:none;stroke-opacity:1"
     d="M 48.826176,4.6287669 45.318326,1.630437"
     id="path1060-6-7"
     inkscape:connector-curvature="0" /></svg>