<?xml version="1.0" encoding="UTF-8" standalone="no"?>
<svg
   xmlns:dc="http://purl.org/dc/elements/1.1/"
   xmlns:cc="http://creativecommons.org/ns#"
   xmlns:rdf="http://www.w3.org/1999/02/22-rdf-syntax-ns#"
   xmlns:svg="http://www.w3.org/2000/svg"
   xmlns="http://www.w3.org/2000/svg"
   xmlns:sodipodi="http://sodipodi.sourceforge.net/DTD/sodipodi-0.dtd"
   xmlns:inkscape="http://www.inkscape.org/namespaces/inkscape"
   version="1.1"
   x="0px"
   y="0px"
   viewBox="0 0 71 81"
   xml:space="preserve"
   id="svg4521"
   sodipodi:docname="lightbulb_cc.svg"
   width="71"
   height="81"
   inkscape:version="0.92.1 r15371"><metadata
     id="metadata4527"><rdf:RDF><cc:Work
         rdf:about=""><dc:format>image/svg+xml</dc:format><dc:type
           rdf:resource="http://purl.org/dc/dcmitype/StillImage" /><dc:title></dc:title></cc:Work></rdf:RDF></metadata><defs
     id="defs4525" /><sodipodi:namedview
     pagecolor="#ffffff"
     bordercolor="#666666"
     borderopacity="1"
     objecttolerance="10"
     gridtolerance="10"
     guidetolerance="10"
     inkscape:pageopacity="0"
     inkscape:pageshadow="2"
     inkscape:window-width="1278"
     inkscape:window-height="1368"
     id="namedview4523"
     showgrid="false"
     inkscape:zoom="5.3400704"
     inkscape:cx="49.247463"
     inkscape:cy="47.306381"
     inkscape:window-x="2639"
     inkscape:window-y="0"
     inkscape:window-maximized="0"
     inkscape:current-layer="svg4521" /><g
     id="g4519"
     style="fill:#858585;fill-opacity:1"
     transform="translate(-14.419286,-11.603423)"><path
       d="m 30.1,47.6 c 0,7.4 4,14 10.5,17.5 V 72 c -2,0.4 -3.6,2.2 -3.6,4.4 0,1.4 0.7,2.7 1.7,3.5 -1,0.8 -1.7,2.1 -1.7,3.5 0,2.5 2,4.5 4.5,4.5 h 17 c 2.5,0 4.5,-2 4.5,-4.5 0,-1.4 -0.7,-2.7 -1.7,-3.5 1,-0.8 1.7,-2.1 1.7,-3.5 0,-2.2 -1.5,-4 -3.6,-4.4 V 65.1 C 65.9,61.6 69.9,55 69.9,47.6 69.9,36.6 61,27.7 50,27.7 39,27.7 30.1,36.6 30.1,47.6 Z M 61,83.4 c 0,1.4 -1.1,2.5 -2.5,2.5 h -17 c -1.4,0 -2.5,-1.1 -2.5,-2.5 0,-1.4 1.1,-2.5 2.5,-2.5 h 17 c 1.4,0 2.5,1.1 2.5,2.5 z m 0,-7 c 0,1.4 -1.1,2.5 -2.5,2.5 h -17 c -1.4,0 -2.5,-1.1 -2.5,-2.5 0,-1.4 1.1,-2.5 2.5,-2.5 h 17 c 1.4,0 2.5,1.1 2.5,2.5 z M 50,56.5 c -1.7,0 -3,-1.3 -3,-3 0,-1.7 1.3,-3 3,-3 1.7,0 3,1.3 3,3 0,1.7 -1.3,3 -3,3 z m 0,-26.8 c 9.9,0 17.9,8 17.9,17.9 0,6.8 -3.8,13 -9.9,16 -0.4,0.2 -0.6,0.6 -0.5,1.1 0,0 0,0.1 0,0.1 v 7.1 H 51 V 58.4 c 2.3,-0.5 4,-2.5 4,-4.9 0,-2.8 -2.2,-5 -5,-5 -2.8,0 -5,2.2 -5,5 0,2.4 1.7,4.4 4,4.9 v 13.5 h -6.4 v -7.1 c 0,0 0,-0.1 0,-0.1 0.1,-0.4 -0.1,-0.9 -0.5,-1.1 C 36,60.5 32.2,54.4 32.2,47.6 32.1,37.7 40.1,29.7 50,29.7 Z"
       id="path4507"
       style="fill:#858585;fill-opacity:1"
       inkscape:connector-curvature="0" /><path
       d="m 51,20.3 v -7.2 c 0,-0.6 -0.4,-1 -1,-1 -0.6,0 -1,0.4 -1,1 v 7.2 c 0,0.6 0.4,1 1,1 0.6,0 1,-0.4 1,-1 z"
       id="path4509"
       style="fill:#858585;fill-opacity:1"
       inkscape:connector-curvature="0" /><path
       d="m 83.6,47.7 c 0.6,0 1,-0.4 1,-1 0,-0.6 -0.4,-1 -1,-1 h -7.2 c -0.6,0 -1,0.4 -1,1 0,0.6 0.4,1 1,1 z"
       id="path4511"
       style="fill:#858585;fill-opacity:1"
       inkscape:connector-curvature="0" /><path
       d="m 23.6,45.7 h -7.2 c -0.6,0 -1,0.4 -1,1 0,0.6 0.4,1 1,1 h 7.2 c 0.6,0 1,-0.4 1,-1 0,-0.6 -0.4,-1 -1,-1 z"
       id="path4513"
       style="fill:#858585;fill-opacity:1"
       inkscape:connector-curvature="0" /><path
       d="m 69.4,28.8 5.1,-5.1 c 0.4,-0.4 0.4,-1 0,-1.4 -0.4,-0.4 -1,-0.4 -1.4,0 L 68,27.4 c -0.4,0.4 -0.4,1 0,1.4 0.2,0.2 0.5,0.3 0.7,0.3 0.2,0 0.5,-0.1 0.7,-0.3 z"
       id="path4515"
       style="fill:#858585;fill-opacity:1"
       inkscape:connector-curvature="0" /><path
       d="m 26.9,22.2 c -0.4,-0.4 -1,-0.4 -1.4,0 -0.4,0.4 -0.4,1 0,1.4 l 5.1,5.1 c 0.2,0.2 0.5,0.3 0.7,0.3 0.2,0 0.5,-0.1 0.7,-0.3 0.4,-0.4 0.4,-1 0,-1.4 z"
       id="path4517"
       style="fill:#858585;fill-opacity:1"
       inkscape:connector-curvature="0" /></g><path
     style="fill:none;fill-opacity:1;stroke:#eaeaea;stroke-width:2.29331303;stroke-linecap:round;stroke-linejoin:miter;stroke-miterlimit:4;stroke-dasharray:none;stroke-opacity:1"
     d="M 13.051254,78.752838 H 58.857908"
     id="path4505"
     inkscape:connector-curvature="0" /></svg>