<svg xmlns="http://www.w3.org/2000/svg" xmlns:xlink="http://www.w3.org/1999/xlink" version="1.1" x="0px" y="0px" viewBox="0 0 100 125" enable-background="new 0 0 100 100" xml:space="preserve"><path d="M12.182,59.434c0.061,0,0.122-0.006,0.185-0.017c0.543-0.102,0.9-0.624,0.8-1.167c-0.066-0.356-0.101-0.723-0.101-1.09  c0-3.25,2.645-5.895,5.895-5.895c1.449,0,2.842,0.53,3.921,1.493c0.019,0.017,0.044,0.022,0.065,0.038  c0.055,0.043,0.115,0.074,0.18,0.105c0.058,0.028,0.114,0.052,0.176,0.068c0.027,0.007,0.049,0.025,0.078,0.03  c0.057,0.009,0.112,0.014,0.168,0.014c0.011,0,0.021-0.005,0.032-0.006c0.044-0.001,0.084-0.016,0.127-0.023  c0.078-0.013,0.155-0.027,0.227-0.057c0.044-0.018,0.081-0.046,0.123-0.071c0.066-0.04,0.127-0.082,0.183-0.136  c0.017-0.016,0.039-0.023,0.054-0.041c0.021-0.023,0.027-0.053,0.045-0.077c0.043-0.058,0.078-0.118,0.109-0.186  c0.024-0.053,0.044-0.104,0.058-0.16c0.007-0.027,0.023-0.049,0.028-0.077c0.481-2.838,2.926-4.898,5.811-4.898  c2.153,0,4.135,1.174,5.171,3.063c0.267,0.482,0.87,0.659,1.358,0.396c0.484-0.267,0.661-0.874,0.396-1.358  c-1.389-2.528-4.042-4.1-6.925-4.1c-3.339,0-6.234,2.065-7.376,5.08c-1.206-0.711-2.585-1.096-4.007-1.096  c-4.354,0-7.895,3.541-7.895,7.895c0,0.49,0.045,0.98,0.134,1.457C11.289,59.098,11.709,59.434,12.182,59.434z"/><path d="M31.008,56.944c-3.448,0.69-5.877,3.685-5.774,7.195C25.25,64.68,25.694,65,26.232,65c0.011,0,0.021,0,0.03,0  c0.552,0,0.986-0.37,0.971-0.922c-0.075-2.532,1.678-4.624,4.167-5.122c1.853-0.368,3.768,0.294,4.989,1.745  c0.354,0.423,0.984,0.471,1.408,0.114c0.423-0.355,0.478-1,0.121-1.422C36.228,57.383,33.579,56.429,31.008,56.944z"/><path d="M82.561,52.555c0.046,0.007,0.093,0.01,0.138,0.01c0.492,0,0.92-0.362,0.989-0.863c0.08-0.575,0.035-1.15-0.133-1.709  c-0.309-1.024-0.999-1.869-1.944-2.377c-0.947-0.508-2.031-0.618-3.058-0.309c-0.129,0.039-0.254,0.084-0.375,0.133  c-0.512,0.208-0.759,0.791-0.551,1.303c0.209,0.513,0.794,0.757,1.303,0.551c0.066-0.027,0.135-0.051,0.202-0.071  c1.062-0.324,2.188,0.284,2.507,1.347c0.085,0.281,0.108,0.57,0.068,0.859C81.631,51.975,82.013,52.479,82.561,52.555z"/><path d="M74.504,56.091c-1.886-1.014-4.054-1.232-6.104-0.614c-0.265,0.08-0.521,0.171-0.771,0.274  c-0.51,0.212-0.752,0.797-0.54,1.308c0.213,0.511,0.797,0.752,1.308,0.54c0.188-0.078,0.383-0.147,0.581-0.207  c1.536-0.464,3.163-0.302,4.579,0.461c1.415,0.76,2.448,2.025,2.911,3.563c0.253,0.841,0.32,1.703,0.199,2.562  c-0.077,0.547,0.304,1.053,0.851,1.13c0.048,0.007,0.095,0.01,0.141,0.01c0.491,0,0.919-0.361,0.989-0.86  c0.161-1.147,0.072-2.297-0.264-3.417C77.768,58.79,76.39,57.104,74.504,56.091z"/><path d="M96.303,56.947c-1.135-3.771-4.761-6.206-8.59-5.975c-0.016-0.717-0.118-1.431-0.328-2.133  c-0.617-2.05-1.995-3.736-3.881-4.749c-1.887-1.014-4.054-1.233-6.104-0.614c-0.057,0.017-0.111,0.041-0.167,0.06  c-2.354-2.002-5.562-2.709-8.547-1.811c-1.569,0.473-2.984,1.356-4.09,2.559c-0.373,0.406-0.348,1.039,0.06,1.413  c0.191,0.177,0.435,0.264,0.677,0.264c0.27,0,0.539-0.108,0.736-0.323c0.862-0.938,1.967-1.628,3.193-1.996  c2.48-0.747,5.168-0.088,7.029,1.715c0.192,0.203,0.457,0.318,0.736,0.314c0.133,0,0.266-0.026,0.39-0.079  c0.182-0.075,0.37-0.142,0.561-0.2c1.538-0.464,3.163-0.301,4.579,0.461c1.415,0.76,2.448,2.025,2.911,3.563  c0.253,0.841,0.32,1.703,0.199,2.562c-0.008,0.058,0.008,0.112,0.01,0.169c0.002,0.061-0.011,0.121,0.003,0.183  c0.002,0.008,0.007,0.013,0.009,0.021c0.019,0.08,0.06,0.149,0.097,0.221c0.023,0.043,0.035,0.092,0.064,0.131  c0.047,0.065,0.111,0.112,0.172,0.164c0.036,0.031,0.065,0.07,0.105,0.095c0.057,0.036,0.124,0.051,0.188,0.075  c0.059,0.022,0.114,0.052,0.178,0.063c0.009,0.001,0.015,0.007,0.024,0.009c0.048,0.007,0.095,0.01,0.141,0.01  c0.042,0,0.08-0.017,0.122-0.022c0.031-0.004,0.06,0.005,0.09-0.001c3.255-0.713,6.555,1.236,7.517,4.43  c0.273,0.91,0.343,1.845,0.207,2.778c-0.08,0.547,0.298,1.055,0.845,1.134c0.049,0.008,0.098,0.011,0.146,0.011  c0.488,0,0.916-0.358,0.988-0.855C96.753,59.365,96.661,58.139,96.303,56.947z"/><path d="M38,67c0-0.553-0.447-1-1-1H11c-0.553,0-1,0.447-1,1s0.447,1,1,1h26C37.553,68,38,67.553,38,67z"/><path d="M93,66H67c-0.553,0-1,0.447-1,1s0.447,1,1,1h26c0.553,0,1-0.447,1-1S93.553,66,93,66z"/><path d="M77,70h-8c-0.553,0-1,0.447-1,1s0.447,1,1,1h8c0.553,0,1-0.447,1-1S77.553,70,77,70z"/><path d="M86,70h-4c-0.553,0-1,0.447-1,1s0.447,1,1,1h4c0.553,0,1-0.447,1-1S86.553,70,86,70z"/><path d="M24,70c-0.553,0-1,0.447-1,1s0.447,1,1,1h11c0.553,0,1-0.447,1-1s-0.447-1-1-1H24z"/><path d="M25,76h-3c-0.553,0-1,0.447-1,1s0.447,1,1,1h3c0.553,0,1-0.447,1-1S25.553,76,25,76z"/><path d="M77,76h-3c-0.553,0-1,0.447-1,1s0.447,1,1,1h3c0.553,0,1-0.447,1-1S77.553,76,77,76z"/><path d="M28.25,53.117c0.389,0,0.759-0.229,0.92-0.608c0.003-0.007,0.301-0.641,0.832-0.818c0.337-0.109,0.757-0.023,1.249,0.259  c0.479,0.276,1.091,0.111,1.365-0.367c0.276-0.479,0.111-1.09-0.367-1.365c-1.259-0.727-2.263-0.63-2.882-0.423  c-1.378,0.462-1.974,1.783-2.037,1.932c-0.217,0.509,0.021,1.096,0.528,1.312C27.986,53.092,28.119,53.117,28.25,53.117z"/><path d="M52,49c0-0.553,0.447-1,1-1h3c0.553,0,1,0.447,1,1s-0.447,1-1,1h-3C52.447,50,52,49.553,52,49z M56.7,52.71  C56.89,52.52,57,52.27,57,52c0-0.271-0.11-0.521-0.29-0.71c-0.37-0.37-1.04-0.37-1.42,0C55.109,51.479,55,51.729,55,52  c0,0.27,0.109,0.52,0.29,0.71C55.479,52.89,55.74,53,56,53S56.52,52.89,56.7,52.71z M50,53h3c0.553,0,1-0.447,1-1s-0.447-1-1-1h-3  c-0.553,0-1,0.447-1,1S49.447,53,50,53z M54,55h-2c-0.553,0-1,0.447-1,1s0.447,1,1,1h2c0.553,0,1-0.447,1-1S54.553,55,54,55z M47,65  c0-0.553-0.447-1-1-1h-2c-0.553,0-1,0.447-1,1s0.447,1,1,1h2C46.553,66,47,65.553,47,65z M59,73h-2c-0.553,0-1,0.447-1,1  s0.447,1,1,1h2c0.553,0,1-0.447,1-1S59.553,73,59,73z M48,67h-2c-0.553,0-1,0.447-1,1s0.447,1,1,1h2c0.553,0,1-0.447,1-1  S48.553,67,48,67z M50,64h-1c-0.553,0-1,0.447-1,1s0.447,1,1,1h1c0.553,0,1-0.447,1-1S50.553,64,50,64z M76,94c0,0.553-0.447,1-1,1  H27c-0.553,0-1-0.447-1-1s0.447-1,1-1h5v-5h2.224L36,81.987V78h1.39l4.406-35.203L39,37.626V32h4v-5h-1v-3h-2.809L50,12.402V6  c0-0.553,0.447-1,1-1s1,0.447,1,1v6.532L63.281,24H61v3h-1v5h3v5.626l-2.584,5.329L64.994,78H66v3.987L68.16,88H70v5h5  C75.553,93,76,93.447,76,94z M38,81h26v-1H38V81z M50,42v-4h-3.702l0.943,4H50z M58,34H45v2h13V34z M43.854,42h1.341l-0.853-3.954  L43.854,42z M52,42h2.849l0.933-4H52V42z M56.894,42h1.636l-0.54-4h-0.162L56.894,42z M61.225,37.626h-1.221l0.231,1.873  L61.225,37.626z M59.873,33.943v1.683h1.623v-1.683H59.873z M43.814,22H58.48l-7.531-7.595L43.814,22z M44,24v1h15v-1H44z M45,32h13  v-5H45V32z M40.888,35.626h1.623v-1.683h-1.623V35.626z M42.162,39.392l0.218-1.766H41.2L42.162,39.392z M39.404,78h23.575  l-4.203-34H43.607L39.404,78z M36.321,88h29.741l-1.462-5H37.783L36.321,88z M68,90H34v3h34V90z"/><text x="0" y="115" fill="#000000" font-size="5px" font-weight="bold" font-family="'Helvetica Neue', Helvetica, Arial-Unicode, Arial, Sans-serif">Created by  Laymik</text><text x="0" y="120" fill="#000000" font-size="5px" font-weight="bold" font-family="'Helvetica Neue', Helvetica, Arial-Unicode, Arial, Sans-serif">from the Noun Project</text></svg>