<?xml version="1.0" encoding="utf-8"?>
<!-- Generator: Adobe Illustrator 16.0.0, SVG Export Plug-In . SVG Version: 6.00 Build 0)  -->
<!DOCTYPE svg PUBLIC "-//W3C//DTD SVG 1.1//EN" "http://www.w3.org/Graphics/SVG/1.1/DTD/svg11.dtd">
<svg version="1.1"
	 id="svg42" xmlns:dc="http://purl.org/dc/elements/1.1/" xmlns:cc="http://creativecommons.org/ns#" xmlns:rdf="http://www.w3.org/1999/02/22-rdf-syntax-ns#" xmlns:svg="http://www.w3.org/2000/svg" xmlns:sodipodi="http://sodipodi.sourceforge.net/DTD/sodipodi-0.dtd" xmlns:inkscape="http://www.inkscape.org/namespaces/inkscape" inkscape:version="0.92.1 r15371" sodipodi:docname="lighthouse_PA.svg"
	 xmlns="http://www.w3.org/2000/svg" xmlns:xlink="http://www.w3.org/1999/xlink" x="0px" y="0px" width="55.42px"
	 height="53.063px" viewBox="8.941 2.705 55.42 53.063" enable-background="new 8.941 2.705 55.42 53.063" xml:space="preserve">
<sodipodi:namedview  inkscape:cy="65.599174" inkscape:cx="21.765069" inkscape:zoom="9.68" showgrid="false" guidetolerance="10" gridtolerance="10" objecttolerance="10" borderopacity="1" pagecolor="#ffffff" bordercolor="#666666" id="namedview44" inkscape:current-layer="svg42" inkscape:window-maximized="1" inkscape:window-y="-8" inkscape:window-x="1358" inkscape:window-height="1377" inkscape:window-width="2560" inkscape:pageshadow="2" inkscape:pageopacity="0">
	</sodipodi:namedview>
<path id="path10" fill="#293255" d="M14.553,35.042c0.036,0,0.072-0.003,0.109-0.01c0.32-0.06,0.531-0.368,0.472-0.688
	c-0.039-0.21-0.06-0.426-0.06-0.643c0-1.916,1.56-3.476,3.476-3.476c0.854,0,1.676,0.313,2.312,0.88
	c0.011,0.01,0.026,0.013,0.038,0.022c0.033,0.025,0.068,0.044,0.106,0.062c0.034,0.017,0.067,0.031,0.104,0.04
	c0.016,0.004,0.029,0.015,0.046,0.018c0.034,0.005,0.066,0.008,0.099,0.008c0.007,0,0.013-0.003,0.019-0.003
	c0.026,0,0.049-0.009,0.075-0.014c0.046-0.007,0.091-0.016,0.134-0.033c0.026-0.011,0.048-0.027,0.073-0.042
	c0.039-0.024,0.075-0.048,0.108-0.08c0.01-0.01,0.023-0.014,0.032-0.024c0.012-0.014,0.016-0.031,0.026-0.045
	c0.025-0.034,0.046-0.069,0.064-0.109c0.014-0.031,0.026-0.062,0.034-0.095c0.004-0.016,0.014-0.029,0.017-0.045
	c0.284-1.673,1.725-2.888,3.426-2.888c1.269,0,2.438,0.692,3.049,1.806c0.157,0.284,0.513,0.388,0.801,0.233
	c0.285-0.158,0.39-0.516,0.233-0.801c-0.819-1.491-2.383-2.417-4.083-2.417c-1.969,0-3.676,1.218-4.349,2.995
	c-0.711-0.419-1.524-0.646-2.362-0.646c-2.567,0-4.655,2.088-4.655,4.655c0,0.289,0.027,0.578,0.079,0.859
	C14.026,34.844,14.273,35.042,14.553,35.042z"/>
<path id="path12" fill="#293255" d="M25.652,33.574c-2.033,0.407-3.465,2.173-3.404,4.243c0.009,0.318,0.271,0.508,0.588,0.508
	c0.006,0,0.012,0,0.018,0c0.326,0,0.582-0.219,0.573-0.545c-0.044-1.492,0.989-2.726,2.457-3.019
	c1.093-0.217,2.222,0.173,2.942,1.029c0.208,0.249,0.58,0.277,0.83,0.067c0.25-0.209,0.282-0.589,0.071-0.838
	C28.73,33.833,27.168,33.271,25.652,33.574z"/>
<path id="path14" fill="#293255" d="M56.048,30.986c0.026,0.004,0.055,0.006,0.081,0.006c0.29,0,0.543-0.213,0.583-0.509
	c0.048-0.339,0.021-0.678-0.078-1.007c-0.183-0.604-0.589-1.102-1.146-1.401c-0.558-0.3-1.197-0.365-1.803-0.183
	c-0.076,0.023-0.149,0.05-0.222,0.079c-0.301,0.123-0.447,0.466-0.324,0.768c0.123,0.303,0.468,0.446,0.768,0.325
	c0.039-0.016,0.08-0.03,0.119-0.042c0.627-0.191,1.291,0.167,1.479,0.794c0.051,0.166,0.064,0.336,0.04,0.507
	C55.5,30.645,55.725,30.942,56.048,30.986z"/>
<path id="path16" fill="#293255" d="M51.297,33.071c-1.111-0.598-2.391-0.726-3.599-0.362c-0.156,0.047-0.308,0.101-0.454,0.162
	c-0.301,0.125-0.443,0.47-0.318,0.771s0.469,0.443,0.771,0.318c0.11-0.046,0.226-0.087,0.343-0.122
	c0.906-0.273,1.865-0.178,2.699,0.272c0.835,0.448,1.443,1.194,1.717,2.101c0.149,0.496,0.189,1.004,0.117,1.51
	c-0.045,0.322,0.18,0.621,0.502,0.666c0.028,0.005,0.057,0.006,0.083,0.006c0.29,0,0.542-0.213,0.583-0.506
	c0.096-0.677,0.043-1.355-0.155-2.015C53.222,34.663,52.41,33.668,51.297,33.071z"/>
<path id="path18" fill="#293255" d="M64.151,33.576c-0.67-2.224-2.808-3.659-5.064-3.523c-0.01-0.423-0.07-0.844-0.193-1.258
	c-0.365-1.208-1.177-2.203-2.289-2.8c-1.112-0.598-2.391-0.727-3.599-0.362c-0.034,0.01-0.065,0.024-0.099,0.036
	c-1.389-1.18-3.279-1.597-5.039-1.068c-0.926,0.279-1.76,0.8-2.412,1.509c-0.22,0.239-0.205,0.613,0.035,0.833
	c0.113,0.104,0.257,0.156,0.4,0.156c0.158,0,0.316-0.063,0.434-0.19c0.508-0.553,1.16-0.96,1.883-1.177
	c1.462-0.44,3.047-0.052,4.145,1.011c0.112,0.12,0.269,0.188,0.434,0.185c0.078,0,0.156-0.015,0.229-0.046
	c0.107-0.044,0.218-0.084,0.331-0.118c0.906-0.273,1.865-0.177,2.699,0.272c0.834,0.448,1.443,1.194,1.717,2.101
	c0.148,0.496,0.188,1.004,0.117,1.511c-0.005,0.034,0.005,0.066,0.006,0.1c0.002,0.036-0.006,0.071,0.002,0.108
	c0.001,0.004,0.004,0.007,0.006,0.012c0.011,0.047,0.035,0.088,0.057,0.13c0.014,0.025,0.021,0.054,0.037,0.077
	c0.028,0.039,0.066,0.066,0.102,0.097c0.021,0.019,0.039,0.042,0.063,0.056c0.033,0.021,0.072,0.03,0.111,0.044
	c0.034,0.013,0.066,0.031,0.104,0.037c0.006,0.001,0.01,0.004,0.015,0.005c0.028,0.004,0.056,0.006,0.083,0.006
	c0.025,0,0.047-0.01,0.072-0.013c0.018-0.002,0.035,0.003,0.053,0c1.92-0.42,3.865,0.729,4.432,2.612
	c0.162,0.537,0.203,1.088,0.123,1.638c-0.047,0.323,0.176,0.622,0.498,0.669c0.029,0.004,0.058,0.006,0.086,0.006
	c0.287,0,0.54-0.211,0.582-0.504C64.416,35.001,64.362,34.279,64.151,33.576z"/>
<path id="path20" inkscape:connector-curvature="0" fill="#293255" d="M29.775,39.503c0-0.326-0.333-0.59-0.744-0.59H9.686
	c-0.412,0-0.744,0.264-0.744,0.59s0.333,0.589,0.744,0.589h19.345C29.442,40.092,29.775,39.83,29.775,39.503z"/>
<path id="path22" fill="#293255" d="M62.204,38.914h-15.33c-0.326,0-0.59,0.264-0.59,0.59s0.264,0.589,0.59,0.589h15.33
	c0.325,0,0.589-0.263,0.589-0.589S62.529,38.914,62.204,38.914z"/>
<path id="path24" fill="#293255" d="M52.77,41.272h-4.717c-0.326,0-0.59,0.264-0.59,0.59s0.264,0.59,0.59,0.59h4.717
	c0.325,0,0.589-0.264,0.589-0.59S53.095,41.272,52.77,41.272z"/>
<path id="path26" fill="#293255" d="M58.076,41.272h-2.358c-0.326,0-0.59,0.264-0.59,0.59s0.264,0.59,0.59,0.59h2.358
	c0.326,0,0.59-0.264,0.59-0.59S58.402,41.272,58.076,41.272z"/>
<path id="path28" fill="#293255" d="M21.521,41.272c-0.326,0-0.59,0.264-0.59,0.59s0.264,0.59,0.59,0.59h6.485
	c0.326,0,0.59-0.264,0.59-0.59s-0.264-0.59-0.59-0.59H21.521z"/>
<path id="path30" fill="#293255" d="M22.11,44.809h-1.769c-0.326,0-0.59,0.264-0.59,0.59s0.264,0.59,0.59,0.59h1.769
	c0.326,0,0.59-0.264,0.59-0.59S22.436,44.809,22.11,44.809z"/>
<path id="path32" fill="#293255" d="M52.77,44.809H51c-0.326,0-0.59,0.264-0.59,0.59s0.264,0.59,0.59,0.59h1.77
	c0.325,0,0.589-0.264,0.589-0.59S53.095,44.809,52.77,44.809z"/>
<path id="path34" fill="#293255" d="M24.026,31.318c0.229,0,0.447-0.135,0.542-0.358c0.001-0.004,0.177-0.378,0.49-0.482
	c0.199-0.064,0.446-0.014,0.737,0.153c0.282,0.163,0.643,0.065,0.805-0.216c0.163-0.283,0.065-0.643-0.216-0.805
	c-0.743-0.428-1.334-0.371-1.699-0.249c-0.813,0.272-1.164,1.051-1.201,1.139c-0.128,0.3,0.012,0.646,0.311,0.773
	C23.871,31.303,23.949,31.318,24.026,31.318z"/>
<path id="path36" inkscape:connector-curvature="0" fill="#293255" d="M38.03,28.647c0-0.326,0.264-0.59,0.59-0.59h1.768
	c0.326,0,0.59,0.264,0.59,0.59s-0.264,0.589-0.59,0.589H38.62C38.293,29.236,38.03,28.973,38.03,28.647z M40.8,30.834
	c0.112-0.112,0.177-0.26,0.177-0.419c0-0.16-0.064-0.307-0.171-0.418c-0.218-0.218-0.612-0.218-0.837,0
	c-0.107,0.111-0.171,0.259-0.171,0.418c0,0.159,0.063,0.307,0.171,0.419c0.111,0.106,0.266,0.171,0.418,0.171
	C40.542,31.005,40.694,30.94,40.8,30.834z M36.85,31.005h1.77c0.325,0,0.589-0.264,0.589-0.59s-0.264-0.589-0.589-0.589h-1.77
	c-0.326,0-0.589,0.263-0.589,0.589S36.524,31.005,36.85,31.005z M39.208,32.185H38.03c-0.326,0-0.59,0.263-0.59,0.589
	s0.264,0.59,0.59,0.59h1.179c0.326,0,0.59-0.264,0.59-0.59S39.535,32.185,39.208,32.185z M35.081,38.081
	c0-0.326-0.263-0.59-0.589-0.59h-1.179c-0.326,0-0.59,0.264-0.59,0.59s0.264,0.59,0.59,0.59h1.179
	C34.818,38.67,35.081,38.407,35.081,38.081z M42.157,42.797h-1.18c-0.326,0-0.59,0.264-0.59,0.59s0.264,0.59,0.59,0.59h1.18
	c0.326,0,0.59-0.264,0.59-0.59S42.483,42.797,42.157,42.797z M35.671,39.26h-1.179c-0.326,0-0.589,0.264-0.589,0.589
	c0,0.326,0.263,0.59,0.589,0.59h1.179c0.326,0,0.59-0.264,0.59-0.59C36.261,39.524,35.997,39.26,35.671,39.26z M36.85,37.491h-0.589
	c-0.326,0-0.59,0.264-0.59,0.59s0.264,0.59,0.59,0.59h0.589c0.326,0,0.59-0.264,0.59-0.59S37.176,37.491,36.85,37.491z
	 M52.18,55.178c0,0.326-0.264,0.59-0.59,0.59H23.289c-0.326,0-0.589-0.264-0.589-0.59c0-0.325,0.264-0.589,0.589-0.589h2.948v-2.948
	h1.311l1.047-3.545v-2.352h0.819l2.598-20.755l-1.649-3.049v-3.317h2.358v-2.948h-0.589v-1.769h-1.656l6.373-6.838V3.294
	c0-0.326,0.264-0.589,0.59-0.589s0.59,0.263,0.59,0.589v3.851l6.65,6.762h-1.344v1.769h-0.59v2.948h1.769v3.317l-1.524,3.142
	l2.699,20.662h0.594v2.352l1.273,3.545h1.085v2.948h2.948C51.917,54.589,52.18,54.853,52.18,55.178z M29.775,47.514h15.329v-0.59
	H29.775V47.514z M36.85,24.52v-2.358h-2.183l0.556,2.358H36.85z M41.567,19.803h-7.665v1.179h7.665V19.803z M33.227,24.52h0.791
	l-0.503-2.331L33.227,24.52z M38.03,24.52h1.68l0.55-2.358H38.03V24.52z M40.915,24.52h0.965l-0.318-2.358h-0.096L40.915,24.52z
	 M43.468,21.941h-0.72l0.137,1.104L43.468,21.941z M42.671,19.769v0.993h0.956v-0.993H42.671z M33.203,12.728h8.647L37.41,8.25
	L33.203,12.728z M33.313,13.907v0.59h8.844v-0.59H33.313z M33.902,18.624h7.665v-2.948h-7.665V18.624z M31.478,20.762h0.957v-0.993
	h-0.957V20.762z M32.229,22.982l0.128-1.041h-0.696L32.229,22.982z M30.603,45.745h13.9l-2.479-20.046h-8.943L30.603,45.745z
	 M28.785,51.641h17.536l-0.862-2.947H29.647L28.785,51.641z M47.463,52.821H27.417v1.769h20.047V52.821z"/>
<path id="path30-6" inkscape:connector-curvature="0" fill="#293255" d="M16.112,42.473h-1.769c-0.326,0-0.589,0.264-0.589,0.59
	s0.264,0.59,0.589,0.59h1.769c0.326,0,0.589-0.264,0.589-0.59S16.438,42.473,16.112,42.473z"/>
</svg>
