<svg xmlns="http://www.w3.org/2000/svg" xmlns:xlink="http://www.w3.org/1999/xlink" version="1.1" x="0px" y="0px" viewBox="0 0 100 125" style="enable-background:new 0 0 100 100;" xml:space="preserve"><g><path d="M30.1,47.6c0,7.4,4,14,10.5,17.5V72c-2,0.4-3.6,2.2-3.6,4.4c0,1.4,0.7,2.7,1.7,3.5c-1,0.8-1.7,2.1-1.7,3.5   c0,2.5,2,4.5,4.5,4.5h17c2.5,0,4.5-2,4.5-4.5c0-1.4-0.7-2.7-1.7-3.5c1-0.8,1.7-2.1,1.7-3.5c0-2.2-1.5-4-3.6-4.4v-6.9   c6.5-3.5,10.5-10.1,10.5-17.5c0-11-8.9-19.9-19.9-19.9S30.1,36.6,30.1,47.6z M61,83.4c0,1.4-1.1,2.5-2.5,2.5h-17   c-1.4,0-2.5-1.1-2.5-2.5s1.1-2.5,2.5-2.5h17C59.9,80.9,61,82,61,83.4z M61,76.4c0,1.4-1.1,2.5-2.5,2.5h-17c-1.4,0-2.5-1.1-2.5-2.5   s1.1-2.5,2.5-2.5h17C59.9,73.9,61,75,61,76.4z M50,56.5c-1.7,0-3-1.3-3-3s1.3-3,3-3s3,1.3,3,3S51.7,56.5,50,56.5z M50,29.7   c9.9,0,17.9,8,17.9,17.9c0,6.8-3.8,13-9.9,16c-0.4,0.2-0.6,0.6-0.5,1.1c0,0,0,0.1,0,0.1v7.1H51V58.4c2.3-0.5,4-2.5,4-4.9   c0-2.8-2.2-5-5-5s-5,2.2-5,5c0,2.4,1.7,4.4,4,4.9v13.5h-6.4v-7.1c0,0,0-0.1,0-0.1c0.1-0.4-0.1-0.9-0.5-1.1c-6.1-3.1-9.9-9.2-9.9-16   C32.1,37.7,40.1,29.7,50,29.7z"/><path d="M51,20.3v-7.2c0-0.6-0.4-1-1-1s-1,0.4-1,1v7.2c0,0.6,0.4,1,1,1S51,20.9,51,20.3z"/><path d="M83.6,47.7c0.6,0,1-0.4,1-1s-0.4-1-1-1h-7.2c-0.6,0-1,0.4-1,1s0.4,1,1,1H83.6z"/><path d="M23.6,45.7h-7.2c-0.6,0-1,0.4-1,1s0.4,1,1,1h7.2c0.6,0,1-0.4,1-1S24.2,45.7,23.6,45.7z"/><path d="M69.4,28.8l5.1-5.1c0.4-0.4,0.4-1,0-1.4s-1-0.4-1.4,0l-5.1,5.1c-0.4,0.4-0.4,1,0,1.4c0.2,0.2,0.5,0.3,0.7,0.3   S69.2,29,69.4,28.8z"/><path d="M26.9,22.2c-0.4-0.4-1-0.4-1.4,0s-0.4,1,0,1.4l5.1,5.1c0.2,0.2,0.5,0.3,0.7,0.3s0.5-0.1,0.7-0.3c0.4-0.4,0.4-1,0-1.4   L26.9,22.2z"/></g><text x="0" y="115" fill="#000000" font-size="5px" font-weight="bold" font-family="'Helvetica Neue', Helvetica, Arial-Unicode, Arial, Sans-serif">Created by Surya</text><text x="0" y="120" fill="#000000" font-size="5px" font-weight="bold" font-family="'Helvetica Neue', Helvetica, Arial-Unicode, Arial, Sans-serif">from the Noun Project</text></svg>