<?xml version="1.0" encoding="UTF-8" standalone="no"?>
<svg
   xmlns:dc="http://purl.org/dc/elements/1.1/"
   xmlns:cc="http://creativecommons.org/ns#"
   xmlns:rdf="http://www.w3.org/1999/02/22-rdf-syntax-ns#"
   xmlns:svg="http://www.w3.org/2000/svg"
   xmlns="http://www.w3.org/2000/svg"
   xmlns:sodipodi="http://sodipodi.sourceforge.net/DTD/sodipodi-0.dtd"
   xmlns:inkscape="http://www.inkscape.org/namespaces/inkscape"
   version="1.1"
   x="0px"
   y="0px"
   viewBox="0 0 68 88"
   enable-background="new 0 0 100 100"
   xml:space="preserve"
   id="svg4499"
   sodipodi:docname="phone_cc.svg"
   width="68"
   height="88"
   inkscape:version="0.92.1 r15371"><metadata
     id="metadata4505"><rdf:RDF><cc:Work
         rdf:about=""><dc:format>image/svg+xml</dc:format><dc:type
           rdf:resource="http://purl.org/dc/dcmitype/StillImage" /><dc:title></dc:title></cc:Work></rdf:RDF></metadata><defs
     id="defs4503" /><sodipodi:namedview
     pagecolor="#ffffff"
     bordercolor="#666666"
     borderopacity="1"
     objecttolerance="10"
     gridtolerance="10"
     guidetolerance="10"
     inkscape:pageopacity="0"
     inkscape:pageshadow="2"
     inkscape:window-width="1278"
     inkscape:window-height="1368"
     id="namedview4501"
     showgrid="false"
     inkscape:zoom="6.5053824"
     inkscape:cx="36.896711"
     inkscape:cy="57.559913"
     inkscape:window-x="1359"
     inkscape:window-y="0"
     inkscape:window-maximized="0"
     inkscape:current-layer="svg4499" /><g
     display="none"
     id="g4487"
     style="display:none"
     transform="translate(0,-37)"><rect
       x="-679.37903"
       y="-443.883"
       display="inline"
       width="1376.931"
       height="568.47198"
       id="rect4485"
       style="display:inline;fill:#000000" /></g><g
     id="g4497"
     style="fill:#293255;fill-opacity:1;stroke:none;stroke-opacity:1"
     transform="translate(-15.986762,-5.7950701)"><path
       d="M 63.211,62.639 51.118,74.426 c -0.025,0.024 -0.05,0.044 -0.074,0.067 -0.03,0.028 -0.057,0.057 -0.092,0.084 l 0.011,0.014 -15.58,15.58 c -0.705,0.705 -1.645,1.093 -2.646,1.093 -0.002,0 -0.004,0 -0.006,0 C 31.733,91.262 30.799,90.875 30.1,90.17 L 19.518,79.6 c -1.452,-1.462 -1.453,-3.833 -0.002,-5.285 l 10.84,-10.84 -0.246,-0.254 c 0.188,-0.182 0.306,-0.434 0.306,-0.716 V 41.007 l 5.261,-5.261 8.577,8.578 c 0.374,0.374 0.233,0.816 0.182,0.943 -0.061,0.149 -0.253,0.496 -0.719,0.5 -3.39,0.026 -7.142,-2.183 -7.179,-2.206 l -1.075,1.686 c 5.689,3.861 8.843,8.317 9.371,13.246 0.822,7.681 -5.031,14.099 -5.333,14.424 -0.006,0.007 -0.025,0.027 -0.026,0.029 -0.38,0.399 -0.365,1.032 0.033,1.414 0.194,0.185 0.442,0.277 0.69,0.277 0.264,0 0.526,-0.104 0.723,-0.309 0.132,-0.138 1.667,-1.781 3.15,-4.389 1.113,-1.957 2.187,-4.458 2.627,-7.299 0.12,-0.777 0.192,-1.578 0.203,-2.4 0.009,-0.637 -0.007,-1.283 -0.077,-1.943 -0.294,-2.773 -1.317,-5.393 -3.027,-7.849 -0.282,-0.405 -0.584,-0.805 -0.904,-1.2 -0.469,-0.58 -0.964,-1.154 -1.515,-1.714 0.768,0.15 1.556,0.24 2.354,0.235 1.14,-0.009 2.118,-0.677 2.554,-1.742 0.44,-1.076 0.198,-2.299 -0.618,-3.115 l -7.403,-7.404 -2.4,-2.401 -0.188,-0.188 -7.261,7.261 v 22.327 c 0,0.024 0.012,0.044 0.014,0.067 L 18.102,72.901 c -2.229,2.229 -2.229,5.866 0,8.111 l 10.583,10.57 c 1.074,1.082 2.511,1.679 4.044,1.682 0.003,0 0.006,0 0.009,0 1.535,0 2.978,-0.596 4.06,-1.679 L 52.852,75.53 66.129,62.589 c -0.165,0.017 -0.326,0.05 -0.496,0.05 z"
       id="path4489"
       style="fill:#293255;fill-opacity:1;stroke:none;stroke-opacity:1"
       inkscape:connector-curvature="0" /><path
       d="M 82.202,40.163 81.97,39.924 C 81.244,39.179 80.313,38.716 79.301,38.55 l 1.358,-1.324 c 0.924,-0.9 1.441,-2.111 1.459,-3.408 0.017,-1.297 -0.471,-2.521 -1.371,-3.445 l -0.229,-0.235 c -0.744,-0.763 -1.682,-1.215 -2.661,-1.379 l 0.978,-0.954 c 0.924,-0.9 1.441,-2.111 1.458,-3.408 0.017,-1.297 -0.471,-2.521 -1.369,-3.443 l -0.23,-0.237 C 76.829,18.804 73.755,18.764 71.841,20.629 L 70.4,22.034 v 2.794 l 2.838,-2.766 c 0.553,-0.539 1.27,-0.807 1.986,-0.807 0.74,0 1.48,0.287 2.036,0.857 l 0.23,0.237 c 0.527,0.541 0.813,1.259 0.803,2.022 -0.01,0.763 -0.313,1.474 -0.854,2.001 L 70.4,33.233 v 2.794 l 4.663,-4.545 c 0.552,-0.538 1.269,-0.806 1.984,-0.806 0.741,0 1.482,0.287 2.039,0.858 l 0.229,0.235 c 0.527,0.541 0.813,1.259 0.803,2.022 -0.01,0.763 -0.313,1.474 -0.855,2.001 L 70.4,44.431 v 2.794 0.008 l 6.109,-5.955 c 0.543,-0.53 1.242,-0.835 2.027,-0.81 0.764,0.007 1.475,0.31 2.001,0.85 l 0.232,0.238 c 1.093,1.122 1.064,2.929 -0.063,4.029 L 70.399,55.633 v 2.239 c 0,0.211 -0.036,0.411 -0.062,0.615 L 82.102,47.019 c 1.918,-1.869 1.962,-4.945 0.1,-6.856 z"
       id="path4491"
       style="fill:#293255;fill-opacity:1;stroke:none;stroke-opacity:1"
       inkscape:connector-curvature="0" /><path
       d="M 70.399,55.633 V 47.235 47.227 44.433 36.028 33.234 24.829 22.035 11.503 c 0,-2.628 -2.139,-4.767 -4.767,-4.767 H 40.631 c -2.628,0 -4.767,2.139 -4.767,4.767 v 21.603 l 2.4,2.401 V 16.562 H 67.998 V 49.247 H 42.894 c 0.32,0.396 0.622,0.795 0.904,1.2 H 68 v 7.425 c 0,1.305 -1.062,2.367 -2.366,2.367 H 46.901 c -0.011,0.823 -0.083,1.623 -0.203,2.4 h 12.662 3.851 2.422 c 0.17,0 0.331,-0.033 0.496,-0.05 2.188,-0.23 3.925,-1.93 4.209,-4.102 0.027,-0.203 0.062,-0.404 0.062,-0.615 V 55.633 Z M 38.265,15.362 v -3.858 c 0,-1.305 1.062,-2.367 2.366,-2.367 h 25.002 c 1.305,0 2.366,1.062 2.366,2.367 v 3.858 H 38.265 Z"
       id="path4493"
       style="fill:#293255;fill-opacity:1;stroke:none;stroke-opacity:1"
       inkscape:connector-curvature="0" /><path
       d="m 53.132,57.58 c 1.314,0 2.383,-1.069 2.383,-2.383 0,-1.314 -1.068,-2.383 -2.383,-2.383 -1.315,0 -2.383,1.069 -2.383,2.383 0,1.314 1.068,2.383 2.383,2.383 z m 0,-3.566 c 0.652,0 1.184,0.531 1.184,1.183 0,0.652 -0.531,1.183 -1.184,1.183 -0.653,0 -1.184,-0.531 -1.184,-1.183 0,-0.652 0.532,-1.183 1.184,-1.183 z"
       id="path4495"
       style="fill:#293255;fill-opacity:1;stroke:none;stroke-opacity:1"
       inkscape:connector-curvature="0" /></g><g
     transform="matrix(0.02122853,0,0,0.02244619,27.254396,11.669904)"
     id="g4517"
     style="fill:#293255;fill-opacity:1"><path
       style="opacity:1;fill:#293255;fill-opacity:1"
       inkscape:connector-curvature="0"
       d="m 414.65,49.73 c 55.63,-22.31 118.31,-26.44 176.42,-11.8 5.34,1.27 9.74,5.7 10.94,11.06 1.72,6.64 -1.86,14.11 -8.07,16.98 -3.92,2.04 -8.5,1.65 -12.6,0.46 -51.41,-12.44 -106.63,-8.52 -155.72,11.2 -11.45,4.32 -22.27,10.1 -32.98,15.96 -8.58,4.9 -17.09,10 -24.84,16.16 -33.46,24.19 -60.86,56.59 -79.63,93.34 -17.34,33.67 -27.32,71.07 -29.32,108.88 -0.08,11.6 -0.75,23.23 0.36,34.8 0.79,7.13 1.59,14.26 2.45,21.39 17.19,6.39 35.05,11.37 53.37,12.96 9.31,0.86 18.64,1.72 27.99,1.97 13.39,-0.77 26.82,-1.51 40.07,-3.68 38.01,-6.85 74.06,-23.92 103.67,-48.67 32.64,-27.36 57.47,-64.11 69.99,-104.87 1.24,-4.54 4.39,-8.61 8.82,-10.38 5,-2.26 10.51,-0.48 15.63,0.32 5.21,0.92 9.39,4.99 11.12,9.9 7.63,18.55 17.99,35.9 30.44,51.61 8.62,11.57 19.01,21.68 29.73,31.29 33.06,28.53 74.58,47.66 118.06,52.71 3.98,-41.83 -2.14,-84.48 -17.33,-123.64 -22.44,-57.74 -65.42,-107.43 -119.98,-136.95 -6.51,-3.14 -9.93,-11.25 -7.54,-18.1 1.91,-6.05 7.99,-10.48 14.36,-10.29 5.24,-0.1 9.54,3.32 13.96,5.66 57.74,33.21 103.13,86.89 127.17,148.93 16.28,41.77 23.05,87.2 19.64,131.91 -0.42,5.2 -0.6,10.51 -2.36,15.48 -0.74,4.25 -0.56,8.99 -3.66,12.42 -3.74,5.1 -10.48,6.38 -16.42,5.47 0.27,4.95 -0.54,10.12 0.37,14.95 5.03,2.14 10.57,3.02 15.3,5.88 3.77,2.26 8.19,3.44 11.46,6.51 6.16,5.82 13.5,10.47 18.51,17.44 2.94,4.15 5.45,8.59 7.97,13 1.71,4.02 3,8.21 4.78,12.2 7.98,23.98 4.03,51.58 -10.32,72.38 -3.97,5.29 -11.66,7.29 -17.69,4.57 -6.2,-2.54 -10.1,-9.55 -8.93,-16.15 0.74,-4.6 3.94,-8.2 5.88,-12.3 4.1,-8.57 5.71,-18.28 4.94,-27.72 -0.52,-6.89 -3.1,-13.38 -5.81,-19.66 -1.97,-3.9 -4.02,-7.91 -7.21,-10.97 -5.82,-5.34 -12.05,-10.33 -19.25,-13.71 0.03,30.12 -0.03,60.24 0.03,90.36 0.1,3.79 -0.35,7.79 -2.66,10.93 -4.07,6.19 -12.98,8.34 -19.43,4.71 -4.93,-2.56 -8.09,-8.03 -7.89,-13.58 0,-47.59 0.02,-95.18 -0.01,-142.77 -35.82,-7.4 -70.04,-22.53 -99.52,-44.19 -30.09,-22.01 -55.26,-50.69 -73.07,-83.45 -15.57,35.47 -39.29,67.31 -68.9,92.29 -29.15,24.62 -63.87,42.62 -100.84,52.11 -18.28,5.04 -37.25,6.58 -56.1,7.69 -7.66,0.84 -15.32,-0.07 -22.97,-0.49 -13.73,-1.08 -27.54,-2.13 -40.95,-5.46 -0.01,43.74 0.01,87.47 -0.01,131.21 0.25,5.49 -2.52,11.07 -7.33,13.84 -6.51,4.1 -15.95,2.01 -20.11,-4.46 -2.17,-3.01 -2.72,-6.79 -2.54,-10.4 0.08,-29.28 0.01,-58.55 0.03,-87.83 -16.14,6.02 -29.24,20.05 -33.29,36.89 -5.17,17.73 0.96,37.46 13.43,50.7 5.33,5.47 5.28,15 -0.07,20.44 -5.27,5.91 -15.41,6.31 -21.07,0.74 -8.96,-9 -15.52,-20.2 -19.97,-32.04 -6.61,-20.4 -5.43,-43.46 4.15,-62.73 8.12,-17.49 22.87,-31.58 40.33,-39.59 5.29,-2.21 10.64,-4.77 16.5,-4.8 -0.02,-6.91 0.01,-13.81 -0.02,-20.71 -4.71,-1.89 -9.71,-3.24 -14.07,-5.89 -3.71,-2.9 -7.2,-6.61 -8.53,-11.23 -2.29,-9.88 -2.73,-20.04 -4.02,-30.07 -1.4,-12.92 -0.8,-25.92 -0.66,-38.88 1.27,-26.98 6.24,-53.76 14.63,-79.43 -25.9,0.19 -51.2,13.53 -66.2,34.61 -12.18,16.12 -18.13,36.63 -16.87,56.76 0.81,3.37 2.88,6.49 2.54,10.09 -0.01,7.2 -5.93,13.66 -13.06,14.47 -16.41,2.11 -31.76,9.55 -44.72,19.66 -11.67,9.97 -19.97,23.4 -25.38,37.65 -3.13,7.33 -3.99,15.34 -4.7,23.2 -0.78,8.09 0.12,16.26 2.21,24.1 2.63,12.79 7.99,25.15 16.3,35.29 4.71,5.93 10.31,11.08 15.17,16.88 3.96,5.18 3.69,12.99 -0.4,18.02 -2.08,2.78 -5.33,4.21 -8.31,5.77 -18.53,9.4 -33.13,26 -40.64,45.32 -5.58,15.16 -7.64,31.82 -4.33,47.74 3.64,19.26 13.58,37.62 28.88,50.08 8.48,7.37 18.63,12.65 29.17,16.39 4.5,1.95 9.27,-1.34 13.85,0.36 7.34,1.82 12.37,9.77 10.82,17.19 -0.99,4.49 -3.42,8.79 -7.01,11.7 -3.16,2.57 -7.59,2.55 -10.8,5.04 -18.74,13.35 -31.87,34.42 -35.34,57.19 -0.75,7.98 -1.92,16.09 -0.33,24.05 0.68,5.15 1.87,10.22 3.52,15.15 5.97,23.56 23.88,43.15 45.73,53.27 11.06,4.82 23.03,7.69 35.15,7.6 0.3,-3.57 0.98,-7.29 3.38,-10.1 4.83,-6.47 15.12,-7.63 21.22,-2.32 3.33,3.05 5.82,6.87 9,10.08 13.95,14.05 32.91,23.15 52.71,24.64 23.2,2.59 46.96,-5.94 63.91,-21.82 -1.07,-4.01 -1.53,-8.44 0.43,-12.25 3.05,-6.98 11.89,-10.6 18.94,-7.65 5.84,2.6 11.3,6.16 17.6,7.64 19.55,6.51 41.53,5.37 60.29,-3.16 5.49,-2.54 12.41,-1.3 16.65,3.01 6.77,6.24 5.53,18.58 -2.43,23.26 -13.36,7.02 -28.46,9.91 -43.4,11.01 -7,0.44 -13.99,-0.32 -20.94,-1.05 -7.03,-0.56 -13.69,-3.03 -20.46,-4.86 -3.46,4.93 -8.81,7.86 -12.97,12.09 -2.07,2.06 -4.77,3.25 -7.15,4.87 -10.13,7.69 -22.26,12.17 -34.34,15.78 -17.3,4.37 -35.57,4.57 -53.05,1.07 -17.42,-3.94 -33.89,-11.89 -47.82,-23.07 -1.7,0.58 -3.4,1.21 -5.19,1.51 -18.47,2.63 -37.65,1.06 -55.19,-5.44 -29.54,-10.56 -54.4,-33.78 -66.55,-62.75 -1.61,-3.39 -2.99,-6.9 -3.69,-10.59 -1.01,-5.12 -3.66,-9.79 -4.17,-15.01 -0.62,-7 -2.41,-13.92 -1.96,-20.99 0.55,-9.97 0.98,-20.06 3.76,-29.71 4.1,-14.72 10.35,-29.08 20.01,-41.03 3.4,-4.44 6.96,-8.77 10.79,-12.84 C 59.51,696.86 37.56,670.48 28.65,640.18 22.64,620.47 21.71,599.06 26.8,579.05 32.88,551.49 49.89,526.69 72.89,510.47 54.54,489.19 44.66,461.03 44.84,433.01 c 0.63,-12.73 1.95,-25.7 6.8,-37.6 2.59,-6.23 4.63,-12.74 8.47,-18.36 3.07,-6.86 8.09,-12.51 12.51,-18.5 5.51,-6.38 11.41,-12.58 18.45,-17.29 5.3,-3.51 10.08,-7.92 16.15,-10.12 7.17,-4.23 15.16,-6.63 22.94,-9.5 -0.16,-17.01 2.91,-34.08 9.81,-49.68 13.55,-31.1 41.13,-56.26 74.11,-65.07 13.17,-4.14 27.16,-4.92 40.86,-3.98 21.28,-47.16 54.93,-88.77 97.11,-118.83 19.22,-14.13 40.5,-25.44 62.6,-34.35 z"
       id="path4507" /><path
       style="opacity:1;fill:#293255;fill-opacity:1"
       inkscape:connector-curvature="0"
       d="m 428.47,492.5 c 4.8,-0.87 9.83,0.05 14.41,1.58 8.27,4.08 13.93,12.81 14.68,21.96 -0.01,5.52 -1.06,11.45 -4.8,15.74 -3.96,4.83 -9.61,8.36 -15.81,9.36 -10.02,1.79 -20.89,-3.32 -25.73,-12.31 -7.02,-11.78 -1.45,-29.24 11.39,-34.34 1.88,-0.83 3.84,-1.54 5.86,-1.99 z"
       id="path4509" /><path
       style="opacity:1;fill:#293255;fill-opacity:1"
       inkscape:connector-curvature="0"
       d="m 599.36,495.54 c 5.71,-1.79 11.99,-0.89 17.32,1.68 8.16,3.48 12.92,12.27 13.91,20.77 0,7.88 -3.29,16.04 -9.68,20.91 -3.93,3.87 -9.65,4.66 -14.88,5.26 -7.64,0.15 -14.75,-3.87 -20.1,-9.03 -4.06,-5.41 -5.36,-12.64 -4.72,-19.27 0.92,-9.75 8.9,-17.87 18.15,-20.32 z"
       id="path4511" /><path
       style="opacity:1;fill:#293255;fill-opacity:1"
       inkscape:connector-curvature="0"
       d="m 748.54,573.93 c -0.27,-7.87 6.53,-15.11 14.44,-15.16 8.31,-0.59 15.95,6.92 15.54,15.24 -0.16,30.99 -5.34,62.11 -16.42,91.1 -12.19,31.83 -30.2,61.53 -53.62,86.35 -19.41,21.1 -42.66,38.52 -67.81,52.2 -13.02,6.72 -26.52,12.51 -40.35,17.34 0.01,37.35 -0.03,74.7 0.01,112.05 0.19,4.32 -1.33,8.73 -4.5,11.74 -4.43,4.45 -11.74,5.54 -17.29,2.64 -4.96,-2.46 -8.26,-7.82 -8.18,-13.36 -0.01,-35.04 0.01,-70.09 0,-105.14 -10.95,2.23 -22.09,3.21 -33.2,4.19 -9.38,0.69 -18.79,1.46 -28.19,0.7 -10.76,-0.91 -21.57,-1.37 -32.25,-3.08 -0.01,36.09 -0.01,72.18 0,108.28 0.18,5.59 -3.06,11.11 -8.07,13.63 -4.98,2.68 -11.44,2.12 -15.92,-1.32 -3.84,-2.83 -6.11,-7.56 -5.97,-12.33 0,-38.22 0.01,-76.44 0,-114.66 -36.44,-10.55 -70.65,-28.86 -99.29,-53.77 -47.91,-40.98 -79.63,-100.1 -87.91,-162.53 -1.01,-8.64 -2.02,-17.32 -1.71,-26.02 0.73,-7.78 8.47,-13.92 16.21,-12.99 7.53,0.5 13.72,7.41 13.64,14.92 2.17,37.36 12.3,74.56 31.7,106.73 36.91,63.53 106.14,107.57 179.66,112.29 8.96,0.59 17.96,1.5 26.94,0.77 16.49,-1.04 33.12,-2.29 49.11,-6.74 31.98,-8.18 62.23,-23.25 87.88,-44.05 34.13,-27.67 60.46,-65.16 73.81,-107.1 7.6,-23.18 11.83,-47.5 11.74,-71.92 z"
       id="path4513" /><path
       style="opacity:1;fill:#293255;fill-opacity:1"
       inkscape:connector-curvature="0"
       d="m 474.35,591.43 c 6.42,-1.76 13.81,1.34 16.89,7.28 2.08,4.4 2.9,9.36 5.57,13.51 3.33,6.43 9.2,11.35 15.87,14.04 8.22,3.06 17.7,0.3 23.9,-5.63 5.35,-4.91 8.62,-11.6 10.69,-18.46 2.17,-7.43 10.78,-12.04 18.18,-9.78 7.44,1.89 12.53,10.12 10.63,17.62 -4.62,17.94 -16.6,34.52 -33.65,42.43 -12.84,6.17 -28.17,6.74 -41.44,1.57 -9.88,-4.24 -18.94,-10.79 -25.39,-19.45 -5.58,-7.72 -9.89,-16.4 -12.15,-25.66 -1.74,-7.54 3.42,-15.67 10.9,-17.47 z"
       id="path4515" /></g></svg>