<svg xmlns="http://www.w3.org/2000/svg" xmlns:xlink="http://www.w3.org/1999/xlink" version="1.1" x="0px" y="0px" viewBox="0 0 100 125" enable-background="new 0 0 100 100" xml:space="preserve"><g display="none"><rect x="-679.379" y="-443.883" display="inline" fill="#000000" width="1376.931" height="568.472"/></g><g><path d="M63.211,62.639L51.118,74.426c-0.025,0.024-0.05,0.044-0.074,0.067c-0.03,0.028-0.057,0.057-0.092,0.084l0.011,0.014   l-15.58,15.58c-0.705,0.705-1.645,1.093-2.646,1.093c-0.002,0-0.004,0-0.006,0c-0.998-0.002-1.932-0.389-2.631-1.094L19.518,79.6   c-1.452-1.462-1.453-3.833-0.002-5.285l10.84-10.84l-0.246-0.254c0.188-0.182,0.306-0.434,0.306-0.716V41.007l5.261-5.261   l8.577,8.578c0.374,0.374,0.233,0.816,0.182,0.943c-0.061,0.149-0.253,0.496-0.719,0.5c-3.39,0.026-7.142-2.183-7.179-2.206   l-1.075,1.686c5.689,3.861,8.843,8.317,9.371,13.246c0.822,7.681-5.031,14.099-5.333,14.424c-0.006,0.007-0.025,0.027-0.026,0.029   c-0.38,0.399-0.365,1.032,0.033,1.414c0.194,0.185,0.442,0.277,0.69,0.277c0.264,0,0.526-0.104,0.723-0.309   c0.132-0.138,1.667-1.781,3.15-4.389c1.113-1.957,2.187-4.458,2.627-7.299c0.12-0.777,0.192-1.578,0.203-2.4   c0.009-0.637-0.007-1.283-0.077-1.943c-0.294-2.773-1.317-5.393-3.027-7.849c-0.282-0.405-0.584-0.805-0.904-1.2   c-0.469-0.58-0.964-1.154-1.515-1.714c0.768,0.15,1.556,0.24,2.354,0.235c1.14-0.009,2.118-0.677,2.554-1.742   c0.44-1.076,0.198-2.299-0.618-3.115l-7.403-7.404l-2.4-2.401l-0.188-0.188l-7.261,7.261v22.327c0,0.024,0.012,0.044,0.014,0.067   L18.102,72.901c-2.229,2.229-2.229,5.866,0,8.111l10.583,10.57c1.074,1.082,2.511,1.679,4.044,1.682c0.003,0,0.006,0,0.009,0   c1.535,0,2.978-0.596,4.06-1.679L52.852,75.53l13.277-12.941c-0.165,0.017-0.326,0.05-0.496,0.05H63.211z"/><path d="M82.202,40.163l-0.232-0.239c-0.726-0.745-1.657-1.208-2.669-1.374l1.358-1.324c0.924-0.9,1.441-2.111,1.459-3.408   c0.017-1.297-0.471-2.521-1.371-3.445l-0.229-0.235c-0.744-0.763-1.682-1.215-2.661-1.379l0.978-0.954   c0.924-0.9,1.441-2.111,1.458-3.408s-0.471-2.521-1.369-3.443l-0.23-0.237c-1.865-1.913-4.939-1.953-6.853-0.088l-1.441,1.405   v2.794l2.838-2.766c0.553-0.539,1.27-0.807,1.986-0.807c0.74,0,1.48,0.287,2.036,0.857l0.23,0.237   c0.527,0.541,0.813,1.259,0.803,2.022s-0.313,1.474-0.854,2.001l-7.039,6.861v2.794l4.663-4.545   c0.552-0.538,1.269-0.806,1.984-0.806c0.741,0,1.482,0.287,2.039,0.858l0.229,0.235c0.527,0.541,0.813,1.259,0.803,2.022   c-0.01,0.763-0.313,1.474-0.855,2.001l-8.863,8.639v2.794v0.008l6.109-5.955c0.543-0.53,1.242-0.835,2.027-0.81   c0.764,0.007,1.475,0.31,2.001,0.85l0.232,0.238c1.093,1.122,1.064,2.929-0.063,4.029L70.399,55.633v2.239   c0,0.211-0.036,0.411-0.062,0.615l11.765-11.468C84.02,45.15,84.064,42.074,82.202,40.163z"/><path d="M70.399,55.633v-8.398v-0.008v-2.794v-8.405v-2.794v-8.405v-2.794V11.503c0-2.628-2.139-4.767-4.767-4.767H40.631   c-2.628,0-4.767,2.139-4.767,4.767v21.603l2.4,2.401V16.562h29.734v32.685H42.894c0.32,0.396,0.622,0.795,0.904,1.2h24.202v7.425   c0,1.305-1.062,2.367-2.366,2.367H46.901c-0.011,0.823-0.083,1.623-0.203,2.4H59.36h3.851h2.422c0.17,0,0.331-0.033,0.496-0.05   c2.188-0.23,3.925-1.93,4.209-4.102c0.027-0.203,0.062-0.404,0.062-0.615V55.633z M38.265,15.362v-3.858   c0-1.305,1.062-2.367,2.366-2.367h25.002c1.305,0,2.366,1.062,2.366,2.367v3.858H38.265z"/><path d="M53.132,57.58c1.314,0,2.383-1.069,2.383-2.383s-1.068-2.383-2.383-2.383s-2.383,1.069-2.383,2.383   S51.817,57.58,53.132,57.58z M53.132,54.014c0.652,0,1.184,0.531,1.184,1.183s-0.531,1.183-1.184,1.183s-1.184-0.531-1.184-1.183   S52.48,54.014,53.132,54.014z"/></g><text x="0" y="115" fill="#000000" font-size="5px" font-weight="bold" font-family="'Helvetica Neue', Helvetica, Arial-Unicode, Arial, Sans-serif">Created by Oksana Latysheva</text><text x="0" y="120" fill="#000000" font-size="5px" font-weight="bold" font-family="'Helvetica Neue', Helvetica, Arial-Unicode, Arial, Sans-serif">from the Noun Project</text></svg>