<svg xmlns:dc="http://purl.org/dc/elements/1.1/" xmlns:cc="http://creativecommons.org/ns#" xmlns:rdf="http://www.w3.org/1999/02/22-rdf-syntax-ns#" xmlns:svg="http://www.w3.org/2000/svg" xmlns="http://www.w3.org/2000/svg" xmlns:sodipodi="http://sodipodi.sourceforge.net/DTD/sodipodi-0.dtd" xmlns:inkscape="http://www.inkscape.org/namespaces/inkscape" version="1.1" x="0px" y="0px" viewBox="0 0 100 125"><g transform="translate(0,-952.36218)"><path style="font-size:medium;font-style:normal;font-variant:normal;font-weight:normal;font-stretch:normal;text-indent:0;text-align:start;text-decoration:none;line-height:normal;letter-spacing:normal;word-spacing:normal;text-transform:none;direction:ltr;block-progression:tb;writing-mode:lr-tb;text-anchor:start;baseline-shift:baseline;opacity:1;color:#000000;fill:#000000;fill-opacity:1;stroke:none;stroke-width:2;marker:none;visibility:visible;display:inline;overflow:visible;enable-background:accumulate;font-family:Sans;-inkscape-font-specification:Sans" d="M 87 12 C 78.257519 12 66.548552 15.1406 55.96875 21.53125 C 51.670705 24.127452 47.568274 27.276171 43.9375 30.96875 C 41.865411 30.729601 39.9429 30.590815 38.15625 30.53125 C 32.627621 30.34694 28.361234 31.04517 24.71875 32.71875 C 19.862105 34.95019 16.223532 38.85667 12.1875 44.40625 A 1.0001 1.0001 0 0 0 12.71875 45.9375 L 32.40625 51.84375 L 48.125 67.5625 L 54.03125 87.28125 A 1.0001 1.0001 0 0 0 55.59375 87.78125 C 61.143282 83.74535 65.049819 80.13795 67.28125 75.28125 C 69.501634 70.448693 69.990777 64.52189 69 56 C 80.939507 44.405416 88 27.47506 88 13 A 1.0001 1.0001 0 0 0 87 12 z M 85.90625 14.09375 C 85.402429 34.03609 70.999811 58.851 49.25 65.8125 L 34.15625 50.71875 C 37.980712 38.48648 46.89211 29.3556 57 23.25 C 66.848041 17.30136 77.740391 14.33154 85.90625 14.09375 z M 66 26 C 61.593566 26 58 29.59357 58 34 C 58 38.40644 61.593566 42 66 42 C 70.406434 42 74 38.40644 74 34 C 74 29.59357 70.406434 26 66 26 z M 66 28 C 69.325551 28 72 30.67445 72 34 C 72 37.32556 69.325551 40 66 40 C 62.674446 40 60 37.32556 60 34 C 60 30.67445 62.674446 28 66 28 z M 35.53125 32.5 C 37.516457 32.454991 39.738483 32.575006 42.1875 32.8125 C 37.905712 37.599959 34.438958 43.253868 32.34375 49.75 L 14.71875 44.46875 C 18.288436 39.7273 21.489481 36.38828 25.53125 34.53125 C 28.277097 33.269644 31.468712 32.592107 35.53125 32.5 z M 67.15625 57.71875 C 67.892907 65.213861 67.35215 70.338295 65.46875 74.4375 C 63.61635 78.4692 60.253089 81.6912 55.53125 85.25 L 50.25 67.65625 C 56.555804 65.574309 62.224357 62.098516 67.15625 57.71875 z M 26.96875 59.96875 A 1.0001 1.0001 0 0 0 26.28125 60.28125 L 20.28125 66.28125 A 1.0054956 1.0054956 0 0 0 21.71875 67.6875 L 27.71875 61.6875 A 1.0001 1.0001 0 0 0 26.96875 59.96875 z M 33.96875 64.96875 A 1.0001 1.0001 0 0 0 33.28125 65.28125 L 21.28125 77.28125 A 1.0054956 1.0054956 0 1 0 22.71875 78.6875 L 34.71875 66.6875 A 1.0001 1.0001 0 0 0 33.96875 64.96875 z M 38.96875 71.96875 A 1.0001 1.0001 0 0 0 38.28125 72.28125 L 32.28125 78.28125 A 1.0054956 1.0054956 0 1 0 33.71875 79.6875 L 39.71875 73.6875 A 1.0001 1.0001 0 0 0 38.96875 71.96875 z " transform="translate(0,952.36218)"/></g><text x="0" y="115" fill="#000000" font-size="5px" font-weight="bold" font-family="'Helvetica Neue', Helvetica, Arial-Unicode, Arial, Sans-serif">Created by pictohaven</text><text x="0" y="120" fill="#000000" font-size="5px" font-weight="bold" font-family="'Helvetica Neue', Helvetica, Arial-Unicode, Arial, Sans-serif">from the Noun Project</text></svg>