<?xml version="1.0" encoding="UTF-8" standalone="no"?>
<svg
   xmlns:dc="http://purl.org/dc/elements/1.1/"
   xmlns:cc="http://creativecommons.org/ns#"
   xmlns:rdf="http://www.w3.org/1999/02/22-rdf-syntax-ns#"
   xmlns:svg="http://www.w3.org/2000/svg"
   xmlns="http://www.w3.org/2000/svg"
   xmlns:sodipodi="http://sodipodi.sourceforge.net/DTD/sodipodi-0.dtd"
   xmlns:inkscape="http://www.inkscape.org/namespaces/inkscape"
   version="1.1"
   x="0px"
   y="0px"
   viewBox="0 0 90 85"
   id="svg4499"
   sodipodi:docname="rocket_cc.svg"
   width="90"
   height="85"
   inkscape:version="0.92.1 r15371">
  <metadata
     id="metadata4505">
    <rdf:RDF>
      <cc:Work
         rdf:about="">
        <dc:format>image/svg+xml</dc:format>
        <dc:type
           rdf:resource="http://purl.org/dc/dcmitype/StillImage" />
        <dc:title></dc:title>
      </cc:Work>
    </rdf:RDF>
  </metadata>
  <defs
     id="defs4503" />
  <sodipodi:namedview
     pagecolor="#ffffff"
     bordercolor="#666666"
     borderopacity="1"
     objecttolerance="10"
     gridtolerance="10"
     guidetolerance="10"
     inkscape:pageopacity="0"
     inkscape:pageshadow="2"
     inkscape:window-width="1278"
     inkscape:window-height="1368"
     id="namedview4501"
     showgrid="false"
     inkscape:zoom="5.3400704"
     inkscape:cx="30.626556"
     inkscape:cy="75.3105"
     inkscape:window-x="1359"
     inkscape:window-y="0"
     inkscape:window-maximized="0"
     inkscape:current-layer="svg4499" />
  <g
     transform="translate(-11.255297,-956.21282)"
     id="g4497">
    <path
       style="color:#000000;font-style:normal;font-variant:normal;font-weight:normal;font-stretch:normal;font-size:medium;line-height:normal;font-family:Sans;-inkscape-font-specification:Sans;text-indent:0;text-align:start;text-decoration:none;text-decoration-line:none;letter-spacing:normal;word-spacing:normal;text-transform:none;writing-mode:lr-tb;direction:ltr;baseline-shift:baseline;text-anchor:start;display:inline;overflow:visible;visibility:visible;opacity:1;fill:#000000;fill-opacity:1;stroke:none;stroke-width:2;marker:none;enable-background:accumulate"
       d="m 87,12 c -8.742481,0 -20.451448,3.1406 -31.03125,9.53125 -4.298045,2.596202 -8.400476,5.744921 -12.03125,9.4375 -2.072089,-0.239149 -3.9946,-0.377935 -5.78125,-0.4375 -5.528629,-0.18431 -9.795016,0.51392 -13.4375,2.1875 -4.856645,2.23144 -8.495218,6.13792 -12.53125,11.6875 a 1.0001,1.0001 0 0 0 0.53125,1.53125 l 19.6875,5.90625 15.71875,15.71875 5.90625,19.71875 a 1.0001,1.0001 0 0 0 1.5625,0.5 c 5.549532,-4.0359 9.456069,-7.6433 11.6875,-12.5 C 69.501634,70.448693 69.990777,64.52189 69,56 80.939507,44.405416 88,27.47506 88,13 a 1.0001,1.0001 0 0 0 -1,-1 z m -1.09375,2.09375 C 85.402429,34.03609 70.999811,58.851 49.25,65.8125 L 34.15625,50.71875 C 37.980712,38.48648 46.89211,29.3556 57,23.25 66.848041,17.30136 77.740391,14.33154 85.90625,14.09375 Z M 66,26 c -4.406434,0 -8,3.59357 -8,8 0,4.40644 3.593566,8 8,8 4.406434,0 8,-3.59356 8,-8 0,-4.40643 -3.593566,-8 -8,-8 z m 0,2 c 3.325551,0 6,2.67445 6,6 0,3.32556 -2.674449,6 -6,6 -3.325554,0 -6,-2.67444 -6,-6 0,-3.32555 2.674446,-6 6,-6 z m -30.46875,4.5 c 1.985207,-0.04501 4.207233,0.07501 6.65625,0.3125 -4.281788,4.787459 -7.748542,10.441368 -9.84375,16.9375 l -17.625,-5.28125 c 3.569686,-4.74145 6.770731,-8.08047 10.8125,-9.9375 2.745847,-1.261606 5.937462,-1.939143 10,-2.03125 z m 31.625,25.21875 c 0.736657,7.495111 0.1959,12.619545 -1.6875,16.71875 -1.8524,4.0317 -5.215661,7.2537 -9.9375,10.8125 L 50.25,67.65625 c 6.305804,-2.081941 11.974357,-5.557734 16.90625,-9.9375 z m -40.1875,2.25 a 1.0001,1.0001 0 0 0 -0.6875,0.3125 l -6,6 a 1.0054956,1.0054956 0 0 0 1.4375,1.40625 l 6,-6 a 1.0001,1.0001 0 0 0 -0.75,-1.71875 z m 7,5 a 1.0001,1.0001 0 0 0 -0.6875,0.3125 l -12,12 a 1.0054956,1.0054956 0 1 0 1.4375,1.40625 l 12,-12 a 1.0001,1.0001 0 0 0 -0.75,-1.71875 z m 5,7 a 1.0001,1.0001 0 0 0 -0.6875,0.3125 l -6,6 a 1.0054956,1.0054956 0 1 0 1.4375,1.40625 l 6,-6 a 1.0001,1.0001 0 0 0 -0.75,-1.71875 z"
       transform="translate(0,952.36218)"
       id="path4495"
       inkscape:connector-curvature="0" />
  </g>
  <ellipse
     style="opacity:1;fill:none;fill-opacity:1;stroke:#ffffff;stroke-width:0.75590551;stroke-linecap:round;stroke-miterlimit:4;stroke-dasharray:none;stroke-opacity:1"
     id="path4519"
     cx="85.24881"
     cy="7.8340364"
     rx="1.6724613"
     ry="1.6232712" />
  <ellipse
     style="opacity:1;fill:none;fill-opacity:1;stroke:#ffffff;stroke-width:0.75590551;stroke-linecap:round;stroke-miterlimit:4;stroke-dasharray:none;stroke-opacity:1"
     id="path4519-4"
     cx="30.711205"
     cy="15.150735"
     rx="1.6724613"
     ry="1.6232712" />
  <path
     style="fill:none;stroke:#ffffff;stroke-width:0.75590551;stroke-linecap:round;stroke-linejoin:miter;stroke-miterlimit:4;stroke-dasharray:none;stroke-opacity:1"
     d="m 46.297178,1.5577003 3.935203,3.640063"
     id="path4490"
     inkscape:connector-curvature="0" />
  <path
     style="fill:none;stroke:#ffffff;stroke-width:0.75590551;stroke-linecap:round;stroke-linejoin:miter;stroke-miterlimit:4;stroke-dasharray:none;stroke-opacity:1"
     d="m 50.330761,1.5085093 -3.935203,3.640063"
     id="path4490-9"
     inkscape:connector-curvature="0" />
  <path
     style="fill:none;stroke:#ffffff;stroke-width:0.75590551;stroke-linecap:round;stroke-linejoin:miter;stroke-miterlimit:4;stroke-dasharray:none;stroke-opacity:1"
     d="m 77.382911,22.905734 3.935203,3.640063"
     id="path4490-1"
     inkscape:connector-curvature="0" />
  <path
     style="fill:none;stroke:#ffffff;stroke-width:0.75590551;stroke-linecap:round;stroke-linejoin:miter;stroke-miterlimit:4;stroke-dasharray:none;stroke-opacity:1"
     d="m 81.416494,22.856543 -3.935203,3.640063"
     id="path4490-9-5"
     inkscape:connector-curvature="0" />
</svg>
