<?xml version="1.0" encoding="UTF-8" standalone="no"?>
<svg
   xmlns:dc="http://purl.org/dc/elements/1.1/"
   xmlns:cc="http://creativecommons.org/ns#"
   xmlns:rdf="http://www.w3.org/1999/02/22-rdf-syntax-ns#"
   xmlns:svg="http://www.w3.org/2000/svg"
   xmlns="http://www.w3.org/2000/svg"
   xmlns:sodipodi="http://sodipodi.sourceforge.net/DTD/sodipodi-0.dtd"
   xmlns:inkscape="http://www.inkscape.org/namespaces/inkscape"
   version="1.1"
   x="0px"
   y="0px"
   viewBox="0 0 64 62"
   xml:space="preserve"
   id="svg4487"
   sodipodi:docname="umbrella_cc.svg"
   inkscape:version="0.92.1 r15371"
   width="64"
   height="62"><metadata
     id="metadata4493"><rdf:RDF><cc:Work
         rdf:about=""><dc:format>image/svg+xml</dc:format><dc:type
           rdf:resource="http://purl.org/dc/dcmitype/StillImage" /><dc:title /></cc:Work></rdf:RDF></metadata><defs
     id="defs4491" /><sodipodi:namedview
     pagecolor="#ffffff"
     bordercolor="#666666"
     borderopacity="1"
     objecttolerance="10"
     gridtolerance="10"
     guidetolerance="10"
     inkscape:pageopacity="0"
     inkscape:pageshadow="2"
     inkscape:window-width="1278"
     inkscape:window-height="1368"
     id="namedview4489"
     showgrid="false"
     inkscape:zoom="10.16466"
     inkscape:cx="34.768892"
     inkscape:cy="38.965451"
     inkscape:window-x="1359"
     inkscape:window-y="0"
     inkscape:window-maximized="1"
     inkscape:current-layer="svg4487" /><path
     d="m 62.90162,26.724613 c 0,-5.946 -4.442,-11.009 -10.254,-11.863 -1.375,-8.114 -8.438,-14.1370004 -16.746,-14.1370004 -7.52,0 -14.074,4.9040004 -16.243,12.0340004 -0.256,-0.022 -0.509,-0.034 -0.757,-0.034 -3.004,0 -5.819,1.522 -7.482,4.011 -5.8430001,0.253 -10.51800007,5.086 -10.51800007,10.989 0,5.746 4.42999997,10.469 10.05300007,10.952 -0.017,0.35 -0.053,0.694 -0.053,1.048 v 2 h 2 c 0,-2.206 1.794,-4 4,-4 2.206,0 4,1.794 4,4 h 2 c 0,-2.206 1.794,-4 4,-4 2.206,0 4,1.794 4,4 v 16 c 0,2.206 1.794,4 4,4 2.206,0 4,-1.794 4,-4 v -2 h -2 v 2 c 0,1.103 -0.897,2 -2,2 -1.103,0 -2,-0.897 -2,-2 v -16 c 0,-2.206 1.794,-4 4,-4 2.206,0 4,1.794 4,4 h 2 c 0,-2.206 1.794,-4 4,-4 2.206,0 4,1.794 4,4 h 2 v -2 c 0,-0.395 -0.038,-0.781 -0.059,-1.172 5.695,-0.932 10.059,-5.873 10.059,-11.828 z m -46,9 c -1.45,0 -2.781,0.517 -3.819,1.376 1.137,-8.202 7.535,-14.734 15.662,-16.1 -4.563,4.226 -7.369,10.061 -7.785,16.308 -1.069,-0.983 -2.494,-1.584 -4.058,-1.584 z m 20,0 c -2.085,0 -3.924,1.068 -5,2.687 -1.076,-1.619 -2.915,-2.687 -5,-2.687 -1.502,0 -2.871,0.561 -3.925,1.476 0.498,-6.423 3.744,-12.35 8.925,-16.229 5.181,3.879 8.427,9.806 8.925,16.229 -1.053,-0.915 -2.423,-1.476 -3.925,-1.476 z m 10,0 c -1.564,0 -2.989,0.601 -4.058,1.584 -0.416,-6.247 -3.222,-12.082 -7.785,-16.308 8.128,1.367 14.525,7.899 15.662,16.1 -1.038,-0.859 -2.369,-1.376 -3.819,-1.376 z m 5.736,0.839 c -1.484,-9.757 -9.687,-17.312 -19.736,-17.788 v -4.051 h -2 v 4.051 c -10.091,0.479 -18.322,8.095 -19.755,17.911 -4.6100001,-0.386 -8.2450001,-4.254 -8.2450001,-8.962 0,-4.963 4.037,-9 8.9610001,-9.001 l 0.691,0.005 0.289,-0.499 c 1.252,-2.162 3.574,-3.505 6.059,-3.505 0.419,0 0.857,0.043 1.303,0.126 l 0.928,0.175 0.228,-0.917 c 1.661,-6.702 7.642,-11.384 14.541,-11.384 7.564,0 13.959,5.66 14.876,13.165 l 0.099,0.812 0.815,0.064 c 5.164,0.404 9.21,4.779 9.21,9.959 0,4.921 -3.576,9.013 -8.264,9.839 z"
     id="path4485"
     style="fill:#000000;fill-opacity:1;stroke:none;stroke-opacity:1"
     inkscape:connector-curvature="0" /><path
     style="fill:none;stroke:#ffffff;stroke-width:0.75590551;stroke-linecap:round;stroke-linejoin:miter;stroke-miterlimit:4;stroke-dasharray:none;stroke-opacity:1"
     d="m 6.0995646,45.865668 3.9352034,3.640063"
     id="path4490"
     inkscape:connector-curvature="0" /><path
     style="fill:none;stroke:#ffffff;stroke-width:0.75590551;stroke-linecap:round;stroke-linejoin:miter;stroke-miterlimit:4;stroke-dasharray:none;stroke-opacity:1"
     d="M 10.133148,45.816477 6.1979447,49.45654"
     id="path4490-9"
     inkscape:connector-curvature="0" /><ellipse
     style="opacity:1;fill:none;fill-opacity:1;stroke:#ffffff;stroke-width:0.75590551;stroke-linecap:round;stroke-miterlimit:4;stroke-dasharray:none;stroke-opacity:1"
     id="path4519"
     cx="55.191223"
     cy="6.4644485"
     rx="1.6724613"
     ry="1.6232712" /><path
     style="fill:none;stroke:#ffffff;stroke-width:0.62064809;stroke-linecap:round;stroke-linejoin:miter;stroke-miterlimit:4;stroke-dasharray:none;stroke-opacity:1"
     d="m 11.134521,5.4314576 h 4.112015"
     id="path4539"
     inkscape:connector-curvature="0" /><path
     style="fill:none;stroke:#ffffff;stroke-width:0.59581679;stroke-linecap:round;stroke-linejoin:miter;stroke-miterlimit:4;stroke-dasharray:none;stroke-opacity:1"
     d="M 13.28131,3.4595483 V 7.2491134"
     id="path4539-5"
     inkscape:connector-curvature="0" /></svg>