<svg xmlns="http://www.w3.org/2000/svg" xmlns:xlink="http://www.w3.org/1999/xlink" version="1.1" x="0px" y="0px" viewBox="0 0 64 80" style="enable-background:new 0 0 64 64;" xml:space="preserve"><path d="M63,28c0-5.946-4.442-11.009-10.254-11.863C51.371,8.023,44.308,2,36,2c-7.52,0-14.074,4.904-16.243,12.034  C19.501,14.012,19.248,14,19,14c-3.004,0-5.819,1.522-7.482,4.011C5.675,18.264,1,23.097,1,29c0,5.746,4.43,10.469,10.053,10.952  C11.036,40.302,11,40.646,11,41v2h2c0-2.206,1.794-4,4-4s4,1.794,4,4h2c0-2.206,1.794-4,4-4s4,1.794,4,4v16c0,2.206,1.794,4,4,4  s4-1.794,4-4v-2h-2v2c0,1.103-0.897,2-2,2s-2-0.897-2-2V43c0-2.206,1.794-4,4-4s4,1.794,4,4h2c0-2.206,1.794-4,4-4s4,1.794,4,4h2v-2  c0-0.395-0.038-0.781-0.059-1.172C58.636,38.896,63,33.955,63,28z M17,37c-1.45,0-2.781,0.517-3.819,1.376  c1.137-8.202,7.535-14.734,15.662-16.1c-4.563,4.226-7.369,10.061-7.785,16.308C19.989,37.601,18.564,37,17,37z M37,37  c-2.085,0-3.924,1.068-5,2.687C30.924,38.068,29.085,37,27,37c-1.502,0-2.871,0.561-3.925,1.476  c0.498-6.423,3.744-12.35,8.925-16.229c5.181,3.879,8.427,9.806,8.925,16.229C39.872,37.561,38.502,37,37,37z M47,37  c-1.564,0-2.989,0.601-4.058,1.584c-0.416-6.247-3.222-12.082-7.785-16.308c8.128,1.367,14.525,7.899,15.662,16.1  C49.781,37.517,48.45,37,47,37z M52.736,37.839C51.252,28.082,43.049,20.527,33,20.051V16h-2v4.051  c-10.091,0.479-18.322,8.095-19.755,17.911C6.635,37.576,3,33.708,3,29c0-4.963,4.037-9,8.961-9.001l0.691,0.005l0.289-0.499  C14.193,17.343,16.515,16,19,16c0.419,0,0.857,0.043,1.303,0.126l0.928,0.175l0.228-0.917C23.12,8.682,29.101,4,36,4  c7.564,0,13.959,5.66,14.876,13.165l0.099,0.812l0.815,0.064C56.954,18.445,61,22.82,61,28C61,32.921,57.424,37.013,52.736,37.839z"/><text x="0" y="79" fill="#000000" font-size="5px" font-weight="bold" font-family="'Helvetica Neue', Helvetica, Arial-Unicode, Arial, Sans-serif">Created by Eucalyp</text><text x="0" y="84" fill="#000000" font-size="5px" font-weight="bold" font-family="'Helvetica Neue', Helvetica, Arial-Unicode, Arial, Sans-serif">from the Noun Project</text></svg>