<?xml version="1.0" encoding="UTF-8" standalone="no"?>
<svg
   xmlns:dc="http://purl.org/dc/elements/1.1/"
   xmlns:cc="http://creativecommons.org/ns#"
   xmlns:rdf="http://www.w3.org/1999/02/22-rdf-syntax-ns#"
   xmlns:svg="http://www.w3.org/2000/svg"
   xmlns="http://www.w3.org/2000/svg"
   xmlns:sodipodi="http://sodipodi.sourceforge.net/DTD/sodipodi-0.dtd"
   xmlns:inkscape="http://www.inkscape.org/namespaces/inkscape"
   version="1.1"
   x="0px"
   y="0px"
   viewBox="0 0 73 70"
   enable-background="new 0 0 63 63"
   xml:space="preserve"
   id="svg4503"
   sodipodi:docname="wallet_cc.svg"
   width="73"
   height="70"
   inkscape:version="0.92.1 r15371"><metadata
     id="metadata4509"><rdf:RDF><cc:Work
         rdf:about=""><dc:format>image/svg+xml</dc:format><dc:type
           rdf:resource="http://purl.org/dc/dcmitype/StillImage" /><dc:title></dc:title></cc:Work></rdf:RDF></metadata><defs
     id="defs4507" /><sodipodi:namedview
     pagecolor="#ffffff"
     bordercolor="#666666"
     borderopacity="1"
     objecttolerance="10"
     gridtolerance="10"
     guidetolerance="10"
     inkscape:pageopacity="0"
     inkscape:pageshadow="2"
     inkscape:window-width="1278"
     inkscape:window-height="1368"
     id="namedview4505"
     showgrid="false"
     inkscape:zoom="8.4763022"
     inkscape:cx="28.826876"
     inkscape:cy="26.137977"
     inkscape:window-x="1359"
     inkscape:window-y="0"
     inkscape:window-maximized="0"
     inkscape:current-layer="svg4503" /><g
     id="g4501"
     transform="translate(9.7920057,7.05878)"><path
       d="M 59.1,33.9 V 26 c 0,-2.7 -2.2,-4.9 -4.9,-4.9 H 48.8 L 55.4,14.5 41.4,0.5 33.5,8.4 28.6,3.5 11,21 H 5.8 c -2.7,0 -4.9,2.2 -4.9,4.9 v 31.6 c 0,2.7 2.2,4.9 4.9,4.9 h 48.4 c 2.7,0 4.9,-2.2 4.9,-4.9 v -7.9 h 3 V 33.9 Z m -9.2,-22.2 2.7,2.7 -2.7,2.7 c -1.1,-1.6 -1.1,-3.7 0,-5.4 z M 41.4,3.3 44.1,6 c -0.8,0.5 -1.7,0.8 -2.7,0.8 0,0 0,0 0,0 -1,0 -1.9,-0.3 -2.7,-0.8 z m -4.1,4.1 c 1.2,0.9 2.6,1.4 4.1,1.4 0,0 0,0 0,0 1.5,0 2.9,-0.5 4.1,-1.4 l 2.9,2.9 c -1.8,2.4 -1.8,5.8 0,8.3 L 46,21 h -4.7 c 0,-1.6 -0.7,-3.2 -1.9,-4.5 -1.3,-1.3 -5.2,-3.2 -7.7,-0.7 -1.3,1.3 -1.6,3.3 -0.9,5.2 h -7.1 z m 2,13.6 h -6.4 c -0.8,-1.4 -0.8,-2.9 0.1,-3.8 1.7,-1.6 4,-0.2 4.9,0.7 0.9,0.9 1.4,2.1 1.4,3.1 z M 28.6,6.3 31.3,9 c -0.8,0.5 -3,1.4 -5.4,0 z m -4.2,4.1 c 2.3,1.6 5.4,1.3 6,1.1 L 24,17.9 c -1.9,-0.7 -3.9,-0.3 -5.2,0.9 -0.6,0.6 -1,1.4 -1.2,2.2 h -3.8 z m -2,9.1 -1.5,1.5 h -1.2 c 0.3,-2 2.5,-1.5 2.7,-1.5 z M 2.9,26 c 0,-1.6 1.3,-3 3,-3 h 48.4 c 1.6,0 3,1.3 3,3 v 1 H 2.9 Z m 54.3,31.6 c 0,1.6 -1.3,3 -3,3 H 5.8 c -1.6,0 -3,-1.3 -3,-3 v -1 h 54.3 v 1 z m 0,-3 H 2.9 V 28.9 h 54.3 v 4.9 h -8.9 c -4.4,0 -7.9,3.5 -7.9,7.9 0,4.4 3.5,7.9 7.9,7.9 h 8.9 z m 2.9,-6.9 H 48.3 c -3.3,0 -5.9,-2.7 -5.9,-5.9 0,-3.3 2.7,-5.9 5.9,-5.9 h 11.8 z"
       id="path4495"
       inkscape:connector-curvature="0" /><path
       d="m 45.3,41.8 c 0,2.2 1.8,3.9 3.9,3.9 2.1,0 3.9,-1.8 3.9,-3.9 0,-2.2 -1.8,-3.9 -3.9,-3.9 -2.1,0 -3.9,1.7 -3.9,3.9 z m 4,-2 c 1.1,0 2,0.9 2,2 0,1.1 -0.9,2 -2,2 -1.1,0 -2,-0.9 -2,-2 0,-1.1 0.9,-2 2,-2 z"
       id="path4497"
       inkscape:connector-curvature="0" /><rect
       x="40.400002"
       y="13.5"
       transform="matrix(0.7071,-0.7071,0.7071,0.7071,1.9035,33.5198)"
       width="2"
       height="2"
       id="rect4499" /></g><ellipse
     style="opacity:1;fill:none;fill-opacity:1;stroke:#ffffff;stroke-width:0.75590551;stroke-linecap:round;stroke-miterlimit:4;stroke-dasharray:none;stroke-opacity:1"
     id="path4519"
     cx="14.275093"
     cy="12.781653"
     rx="1.6724613"
     ry="1.6232712" /><path
     style="fill:none;stroke:#ffffff;stroke-width:0.75590551;stroke-linecap:round;stroke-linejoin:miter;stroke-miterlimit:4;stroke-dasharray:none;stroke-opacity:1"
     d="M 1.7584394,36.469027 5.6936428,40.10909"
     id="path4490"
     inkscape:connector-curvature="0" /><path
     style="fill:none;stroke:#ffffff;stroke-width:0.75590551;stroke-linecap:round;stroke-linejoin:miter;stroke-miterlimit:4;stroke-dasharray:none;stroke-opacity:1"
     d="M 5.7920228,36.419836 1.8568195,40.059899"
     id="path4490-9"
     inkscape:connector-curvature="0" /><path
     style="fill:none;stroke:#ffffff;stroke-width:0.75590551;stroke-linecap:round;stroke-linejoin:miter;stroke-miterlimit:4;stroke-dasharray:none;stroke-opacity:1"
     d="m 58.858811,2.1380193 3.935203,3.6400631"
     id="path4490-6"
     inkscape:connector-curvature="0" /><path
     style="fill:none;stroke:#ffffff;stroke-width:0.75590551;stroke-linecap:round;stroke-linejoin:miter;stroke-miterlimit:4;stroke-dasharray:none;stroke-opacity:1"
     d="M 62.892394,2.0888283 58.957191,5.7288914"
     id="path4490-9-4"
     inkscape:connector-curvature="0" /><path
     style="fill:none;stroke:#ffffff;stroke-width:0.62064809;stroke-linecap:round;stroke-linejoin:miter;stroke-miterlimit:4;stroke-dasharray:none;stroke-opacity:1"
     d="m 25.904298,8.965573 h 4.112015"
     id="path4539"
     inkscape:connector-curvature="0" /><path
     style="fill:none;stroke:#ffffff;stroke-width:0.59581679;stroke-linecap:round;stroke-linejoin:miter;stroke-miterlimit:4;stroke-dasharray:none;stroke-opacity:1"
     d="M 28.051087,6.9936636 V 10.783229"
     id="path4539-5"
     inkscape:connector-curvature="0" /></svg>