<svg xmlns="http://www.w3.org/2000/svg" xmlns:xlink="http://www.w3.org/1999/xlink" version="1.1" x="0px" y="0px" viewBox="0 0 63 78.75" enable-background="new 0 0 63 63" xml:space="preserve"><g><path d="M59.1,33.9V26c0-2.7-2.2-4.9-4.9-4.9h-5.4l6.6-6.6l-14-14l-7.9,7.9l-4.9-4.9L11,21H5.8c-2.7,0-4.9,2.2-4.9,4.9v31.6   c0,2.7,2.2,4.9,4.9,4.9h48.4c2.7,0,4.9-2.2,4.9-4.9v-7.9h3V33.9H59.1z M49.9,11.7l2.7,2.7l-2.7,2.7C48.8,15.5,48.8,13.4,49.9,11.7z    M41.4,3.3L44.1,6c-0.8,0.5-1.7,0.8-2.7,0.8c0,0,0,0,0,0c-1,0-1.9-0.3-2.7-0.8L41.4,3.3z M37.3,7.4c1.2,0.9,2.6,1.4,4.1,1.4   c0,0,0,0,0,0c1.5,0,2.9-0.5,4.1-1.4l2.9,2.9c-1.8,2.4-1.8,5.8,0,8.3L46,21h-4.7c0-1.6-0.7-3.2-1.9-4.5c-1.3-1.3-5.2-3.2-7.7-0.7   c-1.3,1.3-1.6,3.3-0.9,5.2h-7.1L37.3,7.4z M39.3,21h-6.4c-0.8-1.4-0.8-2.9,0.1-3.8c1.7-1.6,4-0.2,4.9,0.7   C38.8,18.8,39.3,20,39.3,21z M28.6,6.3L31.3,9c-0.8,0.5-3,1.4-5.4,0L28.6,6.3z M24.4,10.4c2.3,1.6,5.4,1.3,6,1.1L24,17.9   c-1.9-0.7-3.9-0.3-5.2,0.9c-0.6,0.6-1,1.4-1.2,2.2h-3.8L24.4,10.4z M22.4,19.5L20.9,21h-1.2C20,19,22.2,19.5,22.4,19.5z M2.9,26   c0-1.6,1.3-3,3-3h48.4c1.6,0,3,1.3,3,3v1H2.9V26z M57.2,57.6c0,1.6-1.3,3-3,3H5.8c-1.6,0-3-1.3-3-3v-1h54.3V57.6z M57.2,54.6H2.9   V28.9h54.3v4.9h-8.9c-4.4,0-7.9,3.5-7.9,7.9c0,4.4,3.5,7.9,7.9,7.9h8.9V54.6z M60.1,47.7H48.3c-3.3,0-5.9-2.7-5.9-5.9   c0-3.3,2.7-5.9,5.9-5.9h11.8V47.7z"/><path d="M45.3,41.8c0,2.2,1.8,3.9,3.9,3.9s3.9-1.8,3.9-3.9c0-2.2-1.8-3.9-3.9-3.9S45.3,39.6,45.3,41.8z M49.3,39.8c1.1,0,2,0.9,2,2   c0,1.1-0.9,2-2,2s-2-0.9-2-2C47.3,40.7,48.2,39.8,49.3,39.8z"/><rect x="40.4" y="13.5" transform="matrix(0.7071 -0.7071 0.7071 0.7071 1.9035 33.5198)" width="2" height="2"/></g><text x="0" y="78" fill="#000000" font-size="5px" font-weight="bold" font-family="'Helvetica Neue', Helvetica, Arial-Unicode, Arial, Sans-serif">Created by ProSymbols</text><text x="0" y="83" fill="#000000" font-size="5px" font-weight="bold" font-family="'Helvetica Neue', Helvetica, Arial-Unicode, Arial, Sans-serif">from the Noun Project</text></svg>